<mxfile host="app.diagrams.net" agent="Mozilla/5.0 (X11; Ubuntu; Linux x86_64; rv:133.0) Gecko/20100101 Firefox/133.0" version="26.0.4">
  <diagram id="qX7N4iJkcdhU1jfzKeqy" name="Conceptual map">
    <mxGraphModel dx="2376" dy="1161" grid="0" gridSize="10" guides="1" tooltips="1" connect="1" arrows="1" fold="1" page="0" pageScale="1" pageWidth="827" pageHeight="1169" math="0" shadow="0">
      <root>
        <mxCell id="0" />
        <mxCell id="1" parent="0" />
        <mxCell id="B3_4Dxg9Ekl4PY9z5d4t-1" value="" style="rounded=0;whiteSpace=wrap;html=1;fillColor=#dae8fc;rotation=-97;strokeColor=#6c8ebf;opacity=20;" parent="1" vertex="1">
          <mxGeometry x="-17.12" y="793.09" width="452" height="139.91" as="geometry" />
        </mxCell>
        <mxCell id="nf_Whg44I8AfjpseTQWu-274" value="" style="rounded=0;whiteSpace=wrap;html=1;fillColor=#dae8fc;rotation=-110;strokeColor=#6c8ebf;opacity=20;" parent="1" vertex="1">
          <mxGeometry x="218.15" y="767.5" width="466" height="124" as="geometry" />
        </mxCell>
        <mxCell id="nf_Whg44I8AfjpseTQWu-275" value="" style="rounded=0;whiteSpace=wrap;html=1;fillColor=#dae8fc;rotation=-165;strokeColor=#6c8ebf;opacity=20;" parent="1" vertex="1">
          <mxGeometry x="469.01" y="614.29" width="503.94" height="106.19" as="geometry" />
        </mxCell>
        <mxCell id="nf_Whg44I8AfjpseTQWu-276" value="" style="rounded=0;whiteSpace=wrap;html=1;fillColor=#dae8fc;rotation=-81;strokeColor=#6c8ebf;opacity=20;direction=south;" parent="1" vertex="1">
          <mxGeometry x="758.4" y="295.54" width="97.65" height="495.01" as="geometry" />
        </mxCell>
        <mxCell id="nf_Whg44I8AfjpseTQWu-277" value="" style="rounded=0;whiteSpace=wrap;html=1;fillColor=#dae8fc;rotation=-85;strokeColor=#6c8ebf;opacity=20;direction=south;" parent="1" vertex="1">
          <mxGeometry x="806.6" y="174.85" width="106.19" height="467.01" as="geometry" />
        </mxCell>
        <mxCell id="nf_Whg44I8AfjpseTQWu-278" value="" style="rounded=0;whiteSpace=wrap;html=1;fillColor=#dae8fc;rotation=-85;strokeColor=#6c8ebf;opacity=20;direction=south;" parent="1" vertex="1">
          <mxGeometry x="835.9" y="28.02" width="106.19" height="457.97" as="geometry" />
        </mxCell>
        <mxCell id="nf_Whg44I8AfjpseTQWu-279" value="" style="rounded=0;whiteSpace=wrap;html=1;fillColor=#dae8fc;rotation=-90;strokeColor=#6c8ebf;opacity=20;direction=south;" parent="1" vertex="1">
          <mxGeometry x="820.35" y="-122.62" width="90.5" height="438.97" as="geometry" />
        </mxCell>
        <mxCell id="nf_Whg44I8AfjpseTQWu-280" value="" style="rounded=0;whiteSpace=wrap;html=1;fillColor=#dae8fc;rotation=-60;strokeColor=#6c8ebf;opacity=20;" parent="1" vertex="1">
          <mxGeometry x="-114" y="767.5" width="442" height="134.4" as="geometry" />
        </mxCell>
        <mxCell id="nf_Whg44I8AfjpseTQWu-285" value="" style="edgeStyle=none;curved=1;rounded=0;orthogonalLoop=1;jettySize=auto;html=1;strokeColor=#60E696;fontSize=12;fontColor=#095C86;startSize=8;endSize=8;fillColor=#F694C1;" parent="1" source="nf_Whg44I8AfjpseTQWu-527" target="nf_Whg44I8AfjpseTQWu-293" edge="1">
          <mxGeometry relative="1" as="geometry" />
        </mxCell>
        <mxCell id="nf_Whg44I8AfjpseTQWu-286" value="published by" style="edgeLabel;html=1;align=center;verticalAlign=middle;resizable=0;points=[];fontSize=12;strokeColor=#AF45ED;fontColor=#095C86;fillColor=#F694C1;" parent="nf_Whg44I8AfjpseTQWu-285" connectable="0" vertex="1">
          <mxGeometry x="-0.0732" y="4" relative="1" as="geometry">
            <mxPoint as="offset" />
          </mxGeometry>
        </mxCell>
        <mxCell id="nf_Whg44I8AfjpseTQWu-287" style="edgeStyle=none;curved=1;rounded=0;orthogonalLoop=1;jettySize=auto;html=1;strokeColor=#60E696;fontSize=12;fontColor=#095C86;startSize=8;endSize=8;fillColor=#F694C1;" parent="1" source="nf_Whg44I8AfjpseTQWu-527" target="nf_Whg44I8AfjpseTQWu-294" edge="1">
          <mxGeometry relative="1" as="geometry" />
        </mxCell>
        <mxCell id="nf_Whg44I8AfjpseTQWu-288" value="publication place" style="edgeLabel;html=1;align=center;verticalAlign=middle;resizable=0;points=[];fontSize=12;strokeColor=#AF45ED;fontColor=#095C86;fillColor=#F694C1;" parent="nf_Whg44I8AfjpseTQWu-287" connectable="0" vertex="1">
          <mxGeometry x="-0.1628" y="-3" relative="1" as="geometry">
            <mxPoint x="1" as="offset" />
          </mxGeometry>
        </mxCell>
        <mxCell id="nf_Whg44I8AfjpseTQWu-289" style="edgeStyle=none;curved=1;rounded=0;orthogonalLoop=1;jettySize=auto;html=1;strokeColor=#60E696;fontSize=12;fontColor=#095C86;startSize=8;endSize=8;fillColor=#F694C1;entryX=1;entryY=0.5;entryDx=0;entryDy=0;" parent="1" edge="1">
          <mxGeometry relative="1" as="geometry">
            <mxPoint x="-451" y="-48" as="targetPoint" />
            <mxPoint x="206.01390984887416" y="212.6406253340008" as="sourcePoint" />
          </mxGeometry>
        </mxCell>
        <mxCell id="nf_Whg44I8AfjpseTQWu-290" value="related to" style="edgeLabel;html=1;align=center;verticalAlign=middle;resizable=0;points=[];fontSize=12;strokeColor=#AF45ED;fontColor=#095C86;fillColor=#F694C1;fontStyle=0" parent="nf_Whg44I8AfjpseTQWu-289" connectable="0" vertex="1">
          <mxGeometry x="-0.0883" y="-2" relative="1" as="geometry">
            <mxPoint x="-25" y="-12" as="offset" />
          </mxGeometry>
        </mxCell>
        <mxCell id="nf_Whg44I8AfjpseTQWu-291" value="Edoardo Sanguineti" style="ellipse;shape=doubleEllipse;whiteSpace=wrap;html=1;" parent="1" vertex="1">
          <mxGeometry x="347" y="-106" width="100" height="60" as="geometry" />
        </mxCell>
        <mxCell id="nf_Whg44I8AfjpseTQWu-292" value="1967" style="ellipse;shape=doubleEllipse;whiteSpace=wrap;html=1;" parent="1" vertex="1">
          <mxGeometry x="243" y="-128" width="100" height="60" as="geometry" />
        </mxCell>
        <mxCell id="nf_Whg44I8AfjpseTQWu-293" value="&lt;font style=&quot;font-size: 11px;&quot;&gt;&lt;font&gt;Giangiacomo Feltrinelli&amp;nbsp;&lt;/font&gt;&lt;span style=&quot;background-color: initial;&quot;&gt;Editore&lt;/span&gt;&lt;span style=&quot;background-color: initial;&quot;&gt;&amp;nbsp;&lt;/span&gt;&lt;/font&gt;" style="ellipse;shape=doubleEllipse;whiteSpace=wrap;html=1;strokeColor=default;align=center;verticalAlign=middle;fontFamily=Helvetica;fontSize=12;fontColor=default;fillColor=default;" parent="1" vertex="1">
          <mxGeometry x="142" y="-82" width="100" height="60" as="geometry" />
        </mxCell>
        <mxCell id="nf_Whg44I8AfjpseTQWu-294" value="Milan" style="ellipse;shape=doubleEllipse;whiteSpace=wrap;html=1;strokeColor=default;align=center;verticalAlign=middle;fontFamily=Helvetica;fontSize=12;fontColor=default;fillColor=default;" parent="1" vertex="1">
          <mxGeometry x="66" y="12" width="100" height="60" as="geometry" />
        </mxCell>
        <mxCell id="nf_Whg44I8AfjpseTQWu-295" style="edgeStyle=none;curved=1;rounded=0;orthogonalLoop=1;jettySize=auto;html=1;entryX=0.44;entryY=1.044;entryDx=0;entryDy=0;entryPerimeter=0;strokeColor=#60E696;fontSize=12;fontColor=#095C86;startSize=8;endSize=8;fillColor=#F694C1;" parent="1" source="nf_Whg44I8AfjpseTQWu-527" target="nf_Whg44I8AfjpseTQWu-291" edge="1">
          <mxGeometry relative="1" as="geometry" />
        </mxCell>
        <mxCell id="nf_Whg44I8AfjpseTQWu-296" value="written by" style="edgeLabel;html=1;align=center;verticalAlign=middle;resizable=0;points=[];fontSize=12;strokeColor=#AF45ED;fontColor=#095C86;fillColor=#F694C1;" parent="nf_Whg44I8AfjpseTQWu-295" connectable="0" vertex="1">
          <mxGeometry x="-0.2438" y="-1" relative="1" as="geometry">
            <mxPoint y="-1" as="offset" />
          </mxGeometry>
        </mxCell>
        <mxCell id="nf_Whg44I8AfjpseTQWu-297" value="Novel" style="ellipse;shape=doubleEllipse;whiteSpace=wrap;html=1;strokeColor=default;align=center;verticalAlign=middle;fontFamily=Helvetica;fontSize=12;fontColor=default;fillColor=default;" parent="1" vertex="1">
          <mxGeometry x="419" y="-43" width="100" height="60" as="geometry" />
        </mxCell>
        <mxCell id="nf_Whg44I8AfjpseTQWu-298" style="edgeStyle=none;curved=1;rounded=0;orthogonalLoop=1;jettySize=auto;html=1;entryX=0.5;entryY=1;entryDx=0;entryDy=0;strokeColor=#60E696;fontSize=12;fontColor=#095C86;startSize=8;endSize=8;fillColor=#F694C1;" parent="1" source="nf_Whg44I8AfjpseTQWu-527" target="nf_Whg44I8AfjpseTQWu-297" edge="1">
          <mxGeometry relative="1" as="geometry" />
        </mxCell>
        <mxCell id="nf_Whg44I8AfjpseTQWu-299" value="is a" style="edgeLabel;html=1;align=center;verticalAlign=middle;resizable=0;points=[];fontSize=12;strokeColor=#AF45ED;fontColor=#095C86;fillColor=#F694C1;" parent="nf_Whg44I8AfjpseTQWu-298" connectable="0" vertex="1">
          <mxGeometry x="-0.1569" y="3" relative="1" as="geometry">
            <mxPoint as="offset" />
          </mxGeometry>
        </mxCell>
        <mxCell id="nf_Whg44I8AfjpseTQWu-300" style="edgeStyle=none;curved=1;rounded=0;orthogonalLoop=1;jettySize=auto;html=1;entryX=1;entryY=0.5;entryDx=0;entryDy=0;strokeColor=#60E696;fontSize=12;fontColor=#095C86;startSize=8;endSize=8;fillColor=#F694C1;" parent="1" source="nf_Whg44I8AfjpseTQWu-306" target="nf_Whg44I8AfjpseTQWu-307" edge="1">
          <mxGeometry relative="1" as="geometry" />
        </mxCell>
        <mxCell id="nf_Whg44I8AfjpseTQWu-301" value="created by" style="edgeLabel;html=1;align=center;verticalAlign=middle;resizable=0;points=[];fontSize=12;strokeColor=#AF45ED;fontColor=#095C86;fillColor=#F694C1;" parent="nf_Whg44I8AfjpseTQWu-300" connectable="0" vertex="1">
          <mxGeometry x="-0.1184" y="4" relative="1" as="geometry">
            <mxPoint as="offset" />
          </mxGeometry>
        </mxCell>
        <mxCell id="nf_Whg44I8AfjpseTQWu-302" style="edgeStyle=none;curved=1;rounded=0;orthogonalLoop=1;jettySize=auto;html=1;strokeColor=#60E696;fontSize=12;fontColor=#095C86;startSize=8;endSize=8;fillColor=#F694C1;" parent="1" source="nf_Whg44I8AfjpseTQWu-306" target="nf_Whg44I8AfjpseTQWu-308" edge="1">
          <mxGeometry relative="1" as="geometry" />
        </mxCell>
        <mxCell id="nf_Whg44I8AfjpseTQWu-303" value="is a" style="edgeLabel;html=1;align=center;verticalAlign=middle;resizable=0;points=[];fontSize=12;strokeColor=#AF45ED;fontColor=#095C86;fillColor=#F694C1;" parent="nf_Whg44I8AfjpseTQWu-302" connectable="0" vertex="1">
          <mxGeometry x="-0.1611" y="4" relative="1" as="geometry">
            <mxPoint as="offset" />
          </mxGeometry>
        </mxCell>
        <mxCell id="nf_Whg44I8AfjpseTQWu-304" style="edgeStyle=none;curved=1;rounded=0;orthogonalLoop=1;jettySize=auto;html=1;strokeColor=#60E696;fontSize=12;fontColor=#095C86;startSize=8;endSize=8;fillColor=#F694C1;entryX=1;entryY=0.5;entryDx=0;entryDy=0;" parent="1" source="nf_Whg44I8AfjpseTQWu-306" target="nf_Whg44I8AfjpseTQWu-309" edge="1">
          <mxGeometry relative="1" as="geometry">
            <mxPoint x="-348" y="234" as="targetPoint" />
          </mxGeometry>
        </mxCell>
        <mxCell id="nf_Whg44I8AfjpseTQWu-305" value="created in" style="edgeLabel;html=1;align=center;verticalAlign=middle;resizable=0;points=[];fontSize=12;strokeColor=#AF45ED;fontColor=#095C86;fillColor=#F694C1;" parent="nf_Whg44I8AfjpseTQWu-304" connectable="0" vertex="1">
          <mxGeometry x="-0.1587" y="2" relative="1" as="geometry">
            <mxPoint as="offset" />
          </mxGeometry>
        </mxCell>
        <mxCell id="nf_Whg44I8AfjpseTQWu-306" value="&lt;span style=&quot;font-weight: normal;&quot;&gt;Il Giuoco dell&#39;Oca&lt;/span&gt;&lt;div&gt;&lt;span style=&quot;font-weight: normal;&quot;&gt;di Edoardo Sanguineti&lt;/span&gt;&lt;/div&gt;" style="ellipse;whiteSpace=wrap;html=1;labelBackgroundColor=none;fillColor=#F694C1;strokeColor=#AF45ED;fontColor=#095C86;opacity=20;strokeWidth=1;fontStyle=3" parent="1" vertex="1">
          <mxGeometry x="-570" y="-88" width="120" height="80" as="geometry" />
        </mxCell>
        <mxCell id="nf_Whg44I8AfjpseTQWu-307" value="Gianfranco Baruchello" style="ellipse;shape=doubleEllipse;whiteSpace=wrap;html=1;strokeColor=default;align=center;verticalAlign=middle;fontFamily=Helvetica;fontSize=12;fontColor=default;fillColor=default;" parent="1" vertex="1">
          <mxGeometry x="-750" y="-178" width="100" height="60" as="geometry" />
        </mxCell>
        <mxCell id="nf_Whg44I8AfjpseTQWu-308" value="Collage" style="ellipse;shape=doubleEllipse;whiteSpace=wrap;html=1;strokeColor=default;align=center;verticalAlign=middle;fontFamily=Helvetica;fontSize=12;fontColor=default;fillColor=default;" parent="1" vertex="1">
          <mxGeometry x="-659" y="-245" width="100" height="60" as="geometry" />
        </mxCell>
        <mxCell id="nf_Whg44I8AfjpseTQWu-309" value="1967" style="ellipse;shape=doubleEllipse;whiteSpace=wrap;html=1;strokeColor=default;align=center;verticalAlign=middle;fontFamily=Helvetica;fontSize=12;fontColor=default;fillColor=default;" parent="1" vertex="1">
          <mxGeometry x="-773" y="-98" width="100" height="60" as="geometry" />
        </mxCell>
        <mxCell id="nf_Whg44I8AfjpseTQWu-310" value="Carol Rama" style="ellipse;shape=doubleEllipse;whiteSpace=wrap;html=1;strokeColor=default;align=center;verticalAlign=middle;fontFamily=Helvetica;fontSize=12;fontColor=default;fillColor=default;" parent="1" vertex="1">
          <mxGeometry x="1211" y="324" width="100" height="60" as="geometry" />
        </mxCell>
        <mxCell id="nf_Whg44I8AfjpseTQWu-311" value="Painting" style="ellipse;shape=doubleEllipse;whiteSpace=wrap;html=1;strokeColor=default;align=center;verticalAlign=middle;fontFamily=Helvetica;fontSize=12;fontColor=default;fillColor=default;" parent="1" vertex="1">
          <mxGeometry x="1216" y="253.34" width="100" height="60" as="geometry" />
        </mxCell>
        <mxCell id="nf_Whg44I8AfjpseTQWu-312" value="1967" style="ellipse;shape=doubleEllipse;whiteSpace=wrap;html=1;strokeColor=default;align=center;verticalAlign=middle;fontFamily=Helvetica;fontSize=12;fontColor=default;fillColor=default;" parent="1" vertex="1">
          <mxGeometry x="1211" y="183" width="100" height="60" as="geometry" />
        </mxCell>
        <mxCell id="nf_Whg44I8AfjpseTQWu-313" value="&lt;span&gt;Chapter LXXXIV&lt;/span&gt;" style="ellipse;whiteSpace=wrap;html=1;labelBackgroundColor=none;fillColor=#F694C1;strokeColor=#AF45ED;fontColor=#095C86;opacity=70;strokeWidth=2;fontStyle=3" parent="1" vertex="1">
          <mxGeometry x="673" y="203" width="120" height="80" as="geometry" />
        </mxCell>
        <mxCell id="nf_Whg44I8AfjpseTQWu-314" style="edgeStyle=none;curved=1;rounded=0;orthogonalLoop=1;jettySize=auto;html=1;exitX=1;exitY=0.5;exitDx=0;exitDy=0;entryX=0;entryY=0.5;entryDx=0;entryDy=0;strokeColor=#60E696;fontSize=12;fontColor=#095C86;startSize=8;endSize=8;fillColor=#F694C1;" parent="1" source="nf_Whg44I8AfjpseTQWu-527" target="nf_Whg44I8AfjpseTQWu-313" edge="1">
          <mxGeometry relative="1" as="geometry" />
        </mxCell>
        <mxCell id="nf_Whg44I8AfjpseTQWu-315" value="has chapter" style="edgeLabel;html=1;align=center;verticalAlign=middle;resizable=0;points=[];fontSize=12;strokeColor=#AF45ED;fontColor=#095C86;fillColor=#F694C1;" parent="nf_Whg44I8AfjpseTQWu-314" connectable="0" vertex="1">
          <mxGeometry x="-0.0552" y="3" relative="1" as="geometry">
            <mxPoint x="-7" y="5" as="offset" />
          </mxGeometry>
        </mxCell>
        <mxCell id="nf_Whg44I8AfjpseTQWu-316" style="edgeStyle=none;curved=1;rounded=0;orthogonalLoop=1;jettySize=auto;html=1;exitX=1;exitY=0.5;exitDx=0;exitDy=0;strokeColor=#60E696;fontSize=12;fontColor=#095C86;startSize=8;endSize=8;fillColor=#F694C1;entryX=0;entryY=0.5;entryDx=0;entryDy=0;" parent="1" source="nf_Whg44I8AfjpseTQWu-313" target="nf_Whg44I8AfjpseTQWu-322" edge="1">
          <mxGeometry relative="1" as="geometry">
            <mxPoint x="937" y="390" as="targetPoint" />
          </mxGeometry>
        </mxCell>
        <mxCell id="nf_Whg44I8AfjpseTQWu-317" value="related to" style="edgeLabel;html=1;align=center;verticalAlign=middle;resizable=0;points=[];fontSize=12;strokeColor=#AF45ED;fontColor=#095C86;fillColor=#F694C1;fontStyle=0" parent="nf_Whg44I8AfjpseTQWu-316" connectable="0" vertex="1">
          <mxGeometry x="-0.2238" y="2" relative="1" as="geometry">
            <mxPoint x="11" y="2" as="offset" />
          </mxGeometry>
        </mxCell>
        <mxCell id="nf_Whg44I8AfjpseTQWu-318" style="edgeStyle=none;curved=1;rounded=0;orthogonalLoop=1;jettySize=auto;html=1;exitX=1;exitY=0;exitDx=0;exitDy=0;strokeColor=#60E696;fontSize=12;fontColor=#095C86;startSize=8;endSize=8;fillColor=#F694C1;" parent="1" source="nf_Whg44I8AfjpseTQWu-322" target="nf_Whg44I8AfjpseTQWu-312" edge="1">
          <mxGeometry relative="1" as="geometry" />
        </mxCell>
        <mxCell id="nf_Whg44I8AfjpseTQWu-319" value="created in" style="edgeLabel;html=1;align=center;verticalAlign=middle;resizable=0;points=[];fontSize=12;strokeColor=#AF45ED;fontColor=#095C86;fillColor=#F694C1;" parent="nf_Whg44I8AfjpseTQWu-318" connectable="0" vertex="1">
          <mxGeometry x="-0.0436" y="-2" relative="1" as="geometry">
            <mxPoint as="offset" />
          </mxGeometry>
        </mxCell>
        <mxCell id="nf_Whg44I8AfjpseTQWu-320" style="edgeStyle=none;curved=1;rounded=0;orthogonalLoop=1;jettySize=auto;html=1;exitX=1;exitY=0.5;exitDx=0;exitDy=0;strokeColor=#60E696;fontSize=12;fontColor=#095C86;startSize=8;endSize=8;fillColor=#F694C1;" parent="1" source="nf_Whg44I8AfjpseTQWu-322" target="nf_Whg44I8AfjpseTQWu-311" edge="1">
          <mxGeometry relative="1" as="geometry" />
        </mxCell>
        <mxCell id="nf_Whg44I8AfjpseTQWu-321" value="is a" style="edgeLabel;html=1;align=center;verticalAlign=middle;resizable=0;points=[];fontSize=12;strokeColor=#AF45ED;fontColor=#095C86;fillColor=#F694C1;" parent="nf_Whg44I8AfjpseTQWu-320" connectable="0" vertex="1">
          <mxGeometry x="-0.2447" y="2" relative="1" as="geometry">
            <mxPoint x="5" y="1" as="offset" />
          </mxGeometry>
        </mxCell>
        <mxCell id="nf_Whg44I8AfjpseTQWu-322" value="&lt;i&gt;L&#39;isola degli occhi&lt;/i&gt;" style="ellipse;whiteSpace=wrap;html=1;labelBackgroundColor=none;fillColor=#F694C1;strokeColor=#AF45ED;fontColor=#095C86;opacity=50;" parent="1" vertex="1">
          <mxGeometry x="979" y="238" width="120" height="80" as="geometry" />
        </mxCell>
        <mxCell id="nf_Whg44I8AfjpseTQWu-323" style="edgeStyle=none;curved=1;rounded=0;orthogonalLoop=1;jettySize=auto;html=1;exitX=1;exitY=1;exitDx=0;exitDy=0;entryX=0;entryY=0.5;entryDx=0;entryDy=0;strokeColor=#60E696;fontSize=12;fontColor=#095C86;startSize=8;endSize=8;fillColor=#F694C1;" parent="1" source="nf_Whg44I8AfjpseTQWu-322" target="nf_Whg44I8AfjpseTQWu-310" edge="1">
          <mxGeometry relative="1" as="geometry" />
        </mxCell>
        <mxCell id="nf_Whg44I8AfjpseTQWu-324" value="created by" style="edgeLabel;html=1;align=center;verticalAlign=middle;resizable=0;points=[];fontSize=12;strokeColor=#AF45ED;fontColor=#095C86;fillColor=#F694C1;" parent="nf_Whg44I8AfjpseTQWu-323" connectable="0" vertex="1">
          <mxGeometry x="-0.1079" y="1" relative="1" as="geometry">
            <mxPoint as="offset" />
          </mxGeometry>
        </mxCell>
        <mxCell id="nf_Whg44I8AfjpseTQWu-325" value="&lt;i&gt;Just what is it that makes today&#39;s homes so different, so appealing?&lt;/i&gt;" style="ellipse;whiteSpace=wrap;html=1;labelBackgroundColor=none;fillColor=#F694C1;strokeColor=#AF45ED;fontColor=#095C86;opacity=50;" parent="1" vertex="1">
          <mxGeometry x="955" y="58" width="120" height="80" as="geometry" />
        </mxCell>
        <mxCell id="nf_Whg44I8AfjpseTQWu-326" value="&lt;span&gt;Chapter LXXXVIII&lt;/span&gt;" style="ellipse;whiteSpace=wrap;html=1;labelBackgroundColor=none;fillColor=#F694C1;strokeColor=#AF45ED;fontColor=#095C86;opacity=70;strokeWidth=2;fontStyle=3" parent="1" vertex="1">
          <mxGeometry x="649" y="58" width="120" height="80" as="geometry" />
        </mxCell>
        <mxCell id="nf_Whg44I8AfjpseTQWu-327" style="edgeStyle=none;curved=1;rounded=0;orthogonalLoop=1;jettySize=auto;html=1;exitX=0.768;exitY=0.075;exitDx=0;exitDy=0;entryX=0;entryY=0.5;entryDx=0;entryDy=0;strokeColor=#60E696;fontSize=12;fontColor=#095C86;startSize=8;endSize=8;fillColor=#F694C1;exitPerimeter=0;" parent="1" source="nf_Whg44I8AfjpseTQWu-527" target="nf_Whg44I8AfjpseTQWu-326" edge="1">
          <mxGeometry relative="1" as="geometry">
            <mxPoint x="350" y="195" as="sourcePoint" />
            <mxPoint x="454" y="281" as="targetPoint" />
          </mxGeometry>
        </mxCell>
        <mxCell id="nf_Whg44I8AfjpseTQWu-328" value="has chapter" style="edgeLabel;html=1;align=center;verticalAlign=middle;resizable=0;points=[];fontSize=12;strokeColor=#AF45ED;fontColor=#095C86;fillColor=#F694C1;" parent="nf_Whg44I8AfjpseTQWu-327" connectable="0" vertex="1">
          <mxGeometry x="-0.0552" y="3" relative="1" as="geometry">
            <mxPoint y="-1" as="offset" />
          </mxGeometry>
        </mxCell>
        <mxCell id="nf_Whg44I8AfjpseTQWu-329" style="edgeStyle=none;curved=1;rounded=0;orthogonalLoop=1;jettySize=auto;html=1;exitX=1;exitY=0.5;exitDx=0;exitDy=0;strokeColor=#60E696;fontSize=12;fontColor=#095C86;startSize=8;endSize=8;fillColor=#F694C1;entryX=0;entryY=0.5;entryDx=0;entryDy=0;fontStyle=0" parent="1" source="nf_Whg44I8AfjpseTQWu-326" target="nf_Whg44I8AfjpseTQWu-325" edge="1">
          <mxGeometry relative="1" as="geometry">
            <mxPoint x="621" y="335" as="targetPoint" />
            <mxPoint x="621" y="237" as="sourcePoint" />
          </mxGeometry>
        </mxCell>
        <mxCell id="nf_Whg44I8AfjpseTQWu-330" value="related to" style="edgeLabel;html=1;align=center;verticalAlign=middle;resizable=0;points=[];fontSize=12;strokeColor=#AF45ED;fontColor=#095C86;fillColor=#F694C1;" parent="nf_Whg44I8AfjpseTQWu-329" connectable="0" vertex="1">
          <mxGeometry x="-0.2238" y="2" relative="1" as="geometry">
            <mxPoint as="offset" />
          </mxGeometry>
        </mxCell>
        <mxCell id="nf_Whg44I8AfjpseTQWu-331" value="Richard Hamilton" style="ellipse;shape=doubleEllipse;whiteSpace=wrap;html=1;strokeColor=default;align=center;verticalAlign=middle;fontFamily=Helvetica;fontSize=12;fontColor=default;fillColor=default;" parent="1" vertex="1">
          <mxGeometry x="1191" y="93" width="100" height="60" as="geometry" />
        </mxCell>
        <mxCell id="nf_Whg44I8AfjpseTQWu-332" value="Collage" style="ellipse;shape=doubleEllipse;whiteSpace=wrap;html=1;strokeColor=default;align=center;verticalAlign=middle;fontFamily=Helvetica;fontSize=12;fontColor=default;fillColor=default;" parent="1" vertex="1">
          <mxGeometry x="1173" y="17" width="100" height="60" as="geometry" />
        </mxCell>
        <mxCell id="nf_Whg44I8AfjpseTQWu-333" value="1956" style="ellipse;shape=doubleEllipse;whiteSpace=wrap;html=1;strokeColor=default;align=center;verticalAlign=middle;fontFamily=Helvetica;fontSize=12;fontColor=default;fillColor=default;" parent="1" vertex="1">
          <mxGeometry x="1156" y="-59" width="100" height="60" as="geometry" />
        </mxCell>
        <mxCell id="nf_Whg44I8AfjpseTQWu-334" style="edgeStyle=none;curved=1;rounded=0;orthogonalLoop=1;jettySize=auto;html=1;exitX=1;exitY=0;exitDx=0;exitDy=0;strokeColor=#60E696;fontSize=12;fontColor=#095C86;startSize=8;endSize=8;fillColor=#F694C1;" parent="1" source="nf_Whg44I8AfjpseTQWu-325" target="nf_Whg44I8AfjpseTQWu-333" edge="1">
          <mxGeometry relative="1" as="geometry">
            <mxPoint x="737" y="276" as="sourcePoint" />
          </mxGeometry>
        </mxCell>
        <mxCell id="nf_Whg44I8AfjpseTQWu-335" value="created in" style="edgeLabel;html=1;align=center;verticalAlign=middle;resizable=0;points=[];fontSize=12;strokeColor=#AF45ED;fontColor=#095C86;fillColor=#F694C1;" parent="nf_Whg44I8AfjpseTQWu-334" connectable="0" vertex="1">
          <mxGeometry x="-0.0436" y="-2" relative="1" as="geometry">
            <mxPoint x="-2" y="1" as="offset" />
          </mxGeometry>
        </mxCell>
        <mxCell id="nf_Whg44I8AfjpseTQWu-336" style="edgeStyle=none;curved=1;rounded=0;orthogonalLoop=1;jettySize=auto;html=1;strokeColor=#60E696;fontSize=12;fontColor=#095C86;startSize=8;endSize=8;fillColor=#F694C1;exitX=1;exitY=0.5;exitDx=0;exitDy=0;" parent="1" source="nf_Whg44I8AfjpseTQWu-325" target="nf_Whg44I8AfjpseTQWu-332" edge="1">
          <mxGeometry relative="1" as="geometry">
            <mxPoint x="695" y="288" as="sourcePoint" />
          </mxGeometry>
        </mxCell>
        <mxCell id="nf_Whg44I8AfjpseTQWu-337" value="is a" style="edgeLabel;html=1;align=center;verticalAlign=middle;resizable=0;points=[];fontSize=12;strokeColor=#AF45ED;fontColor=#095C86;fillColor=#F694C1;" parent="nf_Whg44I8AfjpseTQWu-336" connectable="0" vertex="1">
          <mxGeometry x="-0.2447" y="2" relative="1" as="geometry">
            <mxPoint as="offset" />
          </mxGeometry>
        </mxCell>
        <mxCell id="nf_Whg44I8AfjpseTQWu-338" style="edgeStyle=none;curved=1;rounded=0;orthogonalLoop=1;jettySize=auto;html=1;entryX=0;entryY=0.5;entryDx=0;entryDy=0;strokeColor=#60E696;fontSize=12;fontColor=#095C86;startSize=8;endSize=8;fillColor=#F694C1;exitX=1;exitY=1;exitDx=0;exitDy=0;" parent="1" source="nf_Whg44I8AfjpseTQWu-325" target="nf_Whg44I8AfjpseTQWu-331" edge="1">
          <mxGeometry relative="1" as="geometry">
            <mxPoint x="653" y="276" as="sourcePoint" />
          </mxGeometry>
        </mxCell>
        <mxCell id="nf_Whg44I8AfjpseTQWu-339" value="created by" style="edgeLabel;html=1;align=center;verticalAlign=middle;resizable=0;points=[];fontSize=12;strokeColor=#AF45ED;fontColor=#095C86;fillColor=#F694C1;" parent="nf_Whg44I8AfjpseTQWu-338" connectable="0" vertex="1">
          <mxGeometry x="-0.1079" y="1" relative="1" as="geometry">
            <mxPoint as="offset" />
          </mxGeometry>
        </mxCell>
        <mxCell id="nf_Whg44I8AfjpseTQWu-340" value="&lt;div style=&quot;text-align: left;&quot;&gt;&lt;i&gt;Young Romance&lt;/i&gt;&lt;/div&gt;" style="ellipse;whiteSpace=wrap;html=1;labelBackgroundColor=none;fillColor=#F694C1;strokeColor=#AF45ED;fontColor=#095C86;opacity=20;" parent="1" vertex="1">
          <mxGeometry x="1091" y="-149" width="120" height="80" as="geometry" />
        </mxCell>
        <mxCell id="nf_Whg44I8AfjpseTQWu-341" style="edgeStyle=none;curved=1;rounded=0;orthogonalLoop=1;jettySize=auto;html=1;exitX=0.5;exitY=0;exitDx=0;exitDy=0;strokeColor=#60E696;fontSize=12;fontColor=#095C86;startSize=8;endSize=8;fillColor=#F694C1;" parent="1" source="nf_Whg44I8AfjpseTQWu-325" target="nf_Whg44I8AfjpseTQWu-340" edge="1">
          <mxGeometry relative="1" as="geometry">
            <mxPoint x="792" y="28" as="sourcePoint" />
            <mxPoint x="841" y="105" as="targetPoint" />
          </mxGeometry>
        </mxCell>
        <mxCell id="nf_Whg44I8AfjpseTQWu-342" value="related to" style="edgeLabel;html=1;align=center;verticalAlign=middle;resizable=0;points=[];fontSize=12;strokeColor=#AF45ED;fontColor=#095C86;fillColor=#F694C1;fontStyle=0" parent="nf_Whg44I8AfjpseTQWu-341" connectable="0" vertex="1">
          <mxGeometry x="-0.0436" y="-2" relative="1" as="geometry">
            <mxPoint x="7" y="-9" as="offset" />
          </mxGeometry>
        </mxCell>
        <mxCell id="nf_Whg44I8AfjpseTQWu-343" value="&lt;span style=&quot;text-align: start; font-size: 10pt; font-family: Arial;&quot; data-sheets-root=&quot;1&quot;&gt;Joe Simon&lt;/span&gt;" style="ellipse;shape=doubleEllipse;whiteSpace=wrap;html=1;strokeColor=default;align=center;verticalAlign=middle;fontFamily=Helvetica;fontSize=12;fontColor=default;fillColor=default;" parent="1" vertex="1">
          <mxGeometry x="1125" y="-271" width="100" height="60" as="geometry" />
        </mxCell>
        <mxCell id="nf_Whg44I8AfjpseTQWu-344" value="Comic Book" style="ellipse;shape=doubleEllipse;whiteSpace=wrap;html=1;strokeColor=default;align=center;verticalAlign=middle;fontFamily=Helvetica;fontSize=12;fontColor=default;fillColor=default;" parent="1" vertex="1">
          <mxGeometry x="1369" y="-211" width="100" height="60" as="geometry" />
        </mxCell>
        <mxCell id="nf_Whg44I8AfjpseTQWu-345" value="1947" style="ellipse;shape=doubleEllipse;whiteSpace=wrap;html=1;strokeColor=default;align=center;verticalAlign=middle;fontFamily=Helvetica;fontSize=12;fontColor=default;fillColor=default;" parent="1" vertex="1">
          <mxGeometry x="1341" y="-142" width="100" height="60" as="geometry" />
        </mxCell>
        <mxCell id="nf_Whg44I8AfjpseTQWu-346" style="edgeStyle=none;curved=1;rounded=0;orthogonalLoop=1;jettySize=auto;html=1;exitX=1;exitY=0.5;exitDx=0;exitDy=0;entryX=0;entryY=0.5;entryDx=0;entryDy=0;strokeColor=#60E696;fontSize=12;fontColor=#095C86;startSize=8;endSize=8;fillColor=#F694C1;" parent="1" source="nf_Whg44I8AfjpseTQWu-340" target="nf_Whg44I8AfjpseTQWu-345" edge="1">
          <mxGeometry relative="1" as="geometry">
            <mxPoint x="1100.96" y="-294" as="sourcePoint" />
          </mxGeometry>
        </mxCell>
        <mxCell id="nf_Whg44I8AfjpseTQWu-347" value="published from" style="edgeLabel;html=1;align=center;verticalAlign=middle;resizable=0;points=[];fontSize=12;strokeColor=#AF45ED;fontColor=#095C86;fillColor=#F694C1;" parent="nf_Whg44I8AfjpseTQWu-346" connectable="0" vertex="1">
          <mxGeometry x="-0.0436" y="-2" relative="1" as="geometry">
            <mxPoint x="-1" y="-4" as="offset" />
          </mxGeometry>
        </mxCell>
        <mxCell id="nf_Whg44I8AfjpseTQWu-348" style="edgeStyle=none;curved=1;rounded=0;orthogonalLoop=1;jettySize=auto;html=1;strokeColor=#60E696;fontSize=12;fontColor=#095C86;startSize=8;endSize=8;fillColor=#F694C1;" parent="1" source="nf_Whg44I8AfjpseTQWu-340" target="nf_Whg44I8AfjpseTQWu-344" edge="1">
          <mxGeometry relative="1" as="geometry">
            <mxPoint x="1064.96" y="-272" as="sourcePoint" />
          </mxGeometry>
        </mxCell>
        <mxCell id="nf_Whg44I8AfjpseTQWu-349" value="is a" style="edgeLabel;html=1;align=center;verticalAlign=middle;resizable=0;points=[];fontSize=12;strokeColor=#AF45ED;fontColor=#095C86;fillColor=#F694C1;" parent="nf_Whg44I8AfjpseTQWu-348" connectable="0" vertex="1">
          <mxGeometry x="-0.2447" y="2" relative="1" as="geometry">
            <mxPoint as="offset" />
          </mxGeometry>
        </mxCell>
        <mxCell id="nf_Whg44I8AfjpseTQWu-350" style="edgeStyle=none;curved=1;rounded=0;orthogonalLoop=1;jettySize=auto;html=1;strokeColor=#60E696;fontSize=12;fontColor=#095C86;startSize=8;endSize=8;fillColor=#F694C1;entryX=0.5;entryY=1;entryDx=0;entryDy=0;" parent="1" source="nf_Whg44I8AfjpseTQWu-340" target="nf_Whg44I8AfjpseTQWu-343" edge="1">
          <mxGeometry relative="1" as="geometry">
            <mxPoint x="845" y="-115.48000000000002" as="sourcePoint" />
            <mxPoint x="832" y="-184" as="targetPoint" />
          </mxGeometry>
        </mxCell>
        <mxCell id="nf_Whg44I8AfjpseTQWu-351" value="edited by" style="edgeLabel;html=1;align=center;verticalAlign=middle;resizable=0;points=[];fontSize=12;strokeColor=#AF45ED;fontColor=#095C86;fillColor=#F694C1;" parent="nf_Whg44I8AfjpseTQWu-350" connectable="0" vertex="1">
          <mxGeometry x="-0.1079" y="1" relative="1" as="geometry">
            <mxPoint as="offset" />
          </mxGeometry>
        </mxCell>
        <mxCell id="nf_Whg44I8AfjpseTQWu-352" value="&lt;span style=&quot;text-align: start; font-size: 10pt; font-family: Arial;&quot; data-sheets-root=&quot;1&quot;&gt;Jack Kirby&lt;/span&gt;" style="ellipse;shape=doubleEllipse;whiteSpace=wrap;html=1;strokeColor=default;align=center;verticalAlign=middle;fontFamily=Helvetica;fontSize=12;fontColor=default;fillColor=default;" parent="1" vertex="1">
          <mxGeometry x="1279" y="-256" width="100" height="60" as="geometry" />
        </mxCell>
        <mxCell id="nf_Whg44I8AfjpseTQWu-353" style="edgeStyle=none;curved=1;rounded=0;orthogonalLoop=1;jettySize=auto;html=1;strokeColor=#60E696;fontSize=12;fontColor=#095C86;startSize=8;endSize=8;fillColor=#F694C1;entryX=0;entryY=1;entryDx=0;entryDy=0;" parent="1" source="nf_Whg44I8AfjpseTQWu-340" target="nf_Whg44I8AfjpseTQWu-352" edge="1">
          <mxGeometry relative="1" as="geometry">
            <mxPoint x="814" y="-78" as="sourcePoint" />
            <mxPoint x="780" y="-145" as="targetPoint" />
          </mxGeometry>
        </mxCell>
        <mxCell id="nf_Whg44I8AfjpseTQWu-354" value="edited by" style="edgeLabel;html=1;align=center;verticalAlign=middle;resizable=0;points=[];fontSize=12;strokeColor=#AF45ED;fontColor=#095C86;fillColor=#F694C1;" parent="nf_Whg44I8AfjpseTQWu-353" connectable="0" vertex="1">
          <mxGeometry x="-0.1079" y="1" relative="1" as="geometry">
            <mxPoint as="offset" />
          </mxGeometry>
        </mxCell>
        <mxCell id="nf_Whg44I8AfjpseTQWu-357" value="&lt;span&gt;Chapter I&lt;/span&gt;" style="ellipse;whiteSpace=wrap;html=1;labelBackgroundColor=none;fillColor=#F694C1;strokeColor=#AF45ED;fontColor=#095C86;opacity=70;strokeWidth=2;fontStyle=3" parent="1" vertex="1">
          <mxGeometry x="649" y="348" width="120" height="80" as="geometry" />
        </mxCell>
        <mxCell id="nf_Whg44I8AfjpseTQWu-358" style="edgeStyle=none;curved=1;rounded=0;orthogonalLoop=1;jettySize=auto;html=1;entryX=0;entryY=0;entryDx=0;entryDy=0;strokeColor=#60E696;fontSize=12;fontColor=#095C86;startSize=8;endSize=8;fillColor=#F694C1;" parent="1" source="nf_Whg44I8AfjpseTQWu-527" target="nf_Whg44I8AfjpseTQWu-357" edge="1">
          <mxGeometry relative="1" as="geometry">
            <mxPoint x="292.85756482832835" y="261.9972094246865" as="sourcePoint" />
          </mxGeometry>
        </mxCell>
        <mxCell id="nf_Whg44I8AfjpseTQWu-359" value="has chapter" style="edgeLabel;html=1;align=center;verticalAlign=middle;resizable=0;points=[];fontSize=12;strokeColor=#AF45ED;fontColor=#095C86;fillColor=#F694C1;" parent="nf_Whg44I8AfjpseTQWu-358" connectable="0" vertex="1">
          <mxGeometry x="-0.0552" y="3" relative="1" as="geometry">
            <mxPoint y="-1" as="offset" />
          </mxGeometry>
        </mxCell>
        <mxCell id="nf_Whg44I8AfjpseTQWu-360" value="&lt;i&gt;Cassa Sistina&lt;/i&gt;" style="ellipse;whiteSpace=wrap;html=1;labelBackgroundColor=none;fillColor=#F694C1;strokeColor=#AF45ED;fontColor=#095C86;opacity=50;" parent="1" vertex="1">
          <mxGeometry x="965" y="380" width="120" height="80" as="geometry" />
        </mxCell>
        <mxCell id="nf_Whg44I8AfjpseTQWu-361" value="Mario Cerioli" style="ellipse;shape=doubleEllipse;whiteSpace=wrap;html=1;strokeColor=default;align=center;verticalAlign=middle;fontFamily=Helvetica;fontSize=12;fontColor=default;fillColor=default;" parent="1" vertex="1">
          <mxGeometry x="1273" y="462" width="100" height="60" as="geometry" />
        </mxCell>
        <mxCell id="nf_Whg44I8AfjpseTQWu-362" value="Sculpture" style="ellipse;shape=doubleEllipse;whiteSpace=wrap;html=1;strokeColor=default;align=center;verticalAlign=middle;fontFamily=Helvetica;fontSize=12;fontColor=default;fillColor=default;" parent="1" vertex="1">
          <mxGeometry x="1262" y="390" width="100" height="60" as="geometry" />
        </mxCell>
        <mxCell id="nf_Whg44I8AfjpseTQWu-363" style="edgeStyle=none;curved=1;rounded=0;orthogonalLoop=1;jettySize=auto;html=1;strokeColor=#60E696;fontSize=12;fontColor=#095C86;startSize=8;endSize=8;fillColor=#F694C1;exitX=1;exitY=1;exitDx=0;exitDy=0;" parent="1" source="nf_Whg44I8AfjpseTQWu-360" target="nf_Whg44I8AfjpseTQWu-386" edge="1">
          <mxGeometry relative="1" as="geometry">
            <mxPoint x="809" y="727.8" as="sourcePoint" />
          </mxGeometry>
        </mxCell>
        <mxCell id="nf_Whg44I8AfjpseTQWu-364" value="created in" style="edgeLabel;html=1;align=center;verticalAlign=middle;resizable=0;points=[];fontSize=12;strokeColor=#AF45ED;fontColor=#095C86;fillColor=#F694C1;" parent="nf_Whg44I8AfjpseTQWu-363" connectable="0" vertex="1">
          <mxGeometry x="-0.0436" y="-2" relative="1" as="geometry">
            <mxPoint as="offset" />
          </mxGeometry>
        </mxCell>
        <mxCell id="nf_Whg44I8AfjpseTQWu-365" style="edgeStyle=none;curved=1;rounded=0;orthogonalLoop=1;jettySize=auto;html=1;strokeColor=#60E696;fontSize=12;fontColor=#095C86;startSize=8;endSize=8;fillColor=#F694C1;exitX=1;exitY=0.5;exitDx=0;exitDy=0;" parent="1" source="nf_Whg44I8AfjpseTQWu-360" target="nf_Whg44I8AfjpseTQWu-362" edge="1">
          <mxGeometry relative="1" as="geometry">
            <mxPoint x="767" y="739.8" as="sourcePoint" />
          </mxGeometry>
        </mxCell>
        <mxCell id="nf_Whg44I8AfjpseTQWu-366" value="is a" style="edgeLabel;html=1;align=center;verticalAlign=middle;resizable=0;points=[];fontSize=12;strokeColor=#AF45ED;fontColor=#095C86;fillColor=#F694C1;" parent="nf_Whg44I8AfjpseTQWu-365" connectable="0" vertex="1">
          <mxGeometry x="-0.2447" y="2" relative="1" as="geometry">
            <mxPoint as="offset" />
          </mxGeometry>
        </mxCell>
        <mxCell id="nf_Whg44I8AfjpseTQWu-367" style="edgeStyle=none;curved=1;rounded=0;orthogonalLoop=1;jettySize=auto;html=1;strokeColor=#60E696;fontSize=12;fontColor=#095C86;startSize=8;endSize=8;fillColor=#F694C1;exitX=0.93;exitY=0.779;exitDx=0;exitDy=0;entryX=0;entryY=0;entryDx=0;entryDy=0;exitPerimeter=0;" parent="1" source="nf_Whg44I8AfjpseTQWu-360" target="nf_Whg44I8AfjpseTQWu-361" edge="1">
          <mxGeometry relative="1" as="geometry">
            <mxPoint x="786.76" y="666" as="sourcePoint" />
            <mxPoint x="685" y="716.8" as="targetPoint" />
          </mxGeometry>
        </mxCell>
        <mxCell id="nf_Whg44I8AfjpseTQWu-368" value="created by" style="edgeLabel;html=1;align=center;verticalAlign=middle;resizable=0;points=[];fontSize=12;strokeColor=#AF45ED;fontColor=#095C86;fillColor=#F694C1;" parent="nf_Whg44I8AfjpseTQWu-367" connectable="0" vertex="1">
          <mxGeometry x="-0.1079" y="1" relative="1" as="geometry">
            <mxPoint as="offset" />
          </mxGeometry>
        </mxCell>
        <mxCell id="nf_Whg44I8AfjpseTQWu-369" style="edgeStyle=none;curved=1;rounded=0;orthogonalLoop=1;jettySize=auto;html=1;strokeColor=#60E696;fontSize=12;fontColor=#095C86;startSize=8;endSize=8;fillColor=#F694C1;exitX=0.5;exitY=1;exitDx=0;exitDy=0;" parent="1" source="nf_Whg44I8AfjpseTQWu-360" target="nf_Whg44I8AfjpseTQWu-371" edge="1">
          <mxGeometry relative="1" as="geometry">
            <mxPoint x="743.8199999999999" y="634.54" as="targetPoint" />
            <mxPoint x="770.1776284705109" y="738.5292901363562" as="sourcePoint" />
          </mxGeometry>
        </mxCell>
        <mxCell id="nf_Whg44I8AfjpseTQWu-370" value="related to" style="edgeLabel;html=1;align=center;verticalAlign=middle;resizable=0;points=[];fontSize=12;strokeColor=#AF45ED;fontColor=#095C86;fillColor=#F694C1;fontStyle=0" parent="nf_Whg44I8AfjpseTQWu-369" connectable="0" vertex="1">
          <mxGeometry x="-0.2238" y="2" relative="1" as="geometry">
            <mxPoint x="1" as="offset" />
          </mxGeometry>
        </mxCell>
        <mxCell id="nf_Whg44I8AfjpseTQWu-371" value="&lt;i&gt;Vampyr&lt;/i&gt;" style="ellipse;whiteSpace=wrap;html=1;labelBackgroundColor=none;fillColor=#F694C1;strokeColor=#AF45ED;fontColor=#095C86;opacity=50;" parent="1" vertex="1">
          <mxGeometry x="922" y="526" width="120" height="80" as="geometry" />
        </mxCell>
        <mxCell id="nf_Whg44I8AfjpseTQWu-372" value="Carl Theodor Dreyer" style="ellipse;shape=doubleEllipse;whiteSpace=wrap;html=1;strokeColor=default;align=center;verticalAlign=middle;fontFamily=Helvetica;fontSize=12;fontColor=default;fillColor=default;" parent="1" vertex="1">
          <mxGeometry x="1003" y="665" width="100" height="60" as="geometry" />
        </mxCell>
        <mxCell id="nf_Whg44I8AfjpseTQWu-373" value="Film" style="ellipse;shape=doubleEllipse;whiteSpace=wrap;html=1;strokeColor=default;align=center;verticalAlign=middle;fontFamily=Helvetica;fontSize=12;fontColor=default;fillColor=default;" parent="1" vertex="1">
          <mxGeometry x="1119" y="659" width="100" height="60" as="geometry" />
        </mxCell>
        <mxCell id="nf_Whg44I8AfjpseTQWu-374" value="1932" style="ellipse;shape=doubleEllipse;whiteSpace=wrap;html=1;strokeColor=default;align=center;verticalAlign=middle;fontFamily=Helvetica;fontSize=12;fontColor=default;fillColor=default;" parent="1" vertex="1">
          <mxGeometry x="1273" y="546" width="100" height="60" as="geometry" />
        </mxCell>
        <mxCell id="nf_Whg44I8AfjpseTQWu-375" style="edgeStyle=none;curved=1;rounded=0;orthogonalLoop=1;jettySize=auto;html=1;strokeColor=#60E696;fontSize=12;fontColor=#095C86;startSize=8;endSize=8;fillColor=#F694C1;exitX=1;exitY=0;exitDx=0;exitDy=0;" parent="1" source="nf_Whg44I8AfjpseTQWu-371" target="nf_Whg44I8AfjpseTQWu-374" edge="1">
          <mxGeometry relative="1" as="geometry">
            <mxPoint x="382.82" y="569.8" as="sourcePoint" />
          </mxGeometry>
        </mxCell>
        <mxCell id="nf_Whg44I8AfjpseTQWu-376" value="released in" style="edgeLabel;html=1;align=center;verticalAlign=middle;resizable=0;points=[];fontSize=12;strokeColor=#AF45ED;fontColor=#095C86;fillColor=#F694C1;" parent="nf_Whg44I8AfjpseTQWu-375" connectable="0" vertex="1">
          <mxGeometry x="-0.0436" y="-2" relative="1" as="geometry">
            <mxPoint as="offset" />
          </mxGeometry>
        </mxCell>
        <mxCell id="nf_Whg44I8AfjpseTQWu-377" style="edgeStyle=none;curved=1;rounded=0;orthogonalLoop=1;jettySize=auto;html=1;exitX=1;exitY=1;exitDx=0;exitDy=0;strokeColor=#60E696;fontSize=12;fontColor=#095C86;startSize=8;endSize=8;fillColor=#F694C1;" parent="1" source="nf_Whg44I8AfjpseTQWu-371" target="nf_Whg44I8AfjpseTQWu-373" edge="1">
          <mxGeometry relative="1" as="geometry">
            <mxPoint x="574.8199999999999" y="673.8" as="sourcePoint" />
          </mxGeometry>
        </mxCell>
        <mxCell id="nf_Whg44I8AfjpseTQWu-378" value="&lt;font color=&quot;#095c86&quot;&gt;&lt;span style=&quot;font-size: 12px;&quot;&gt;is a&lt;/span&gt;&lt;/font&gt;" style="edgeLabel;html=1;align=center;verticalAlign=middle;resizable=0;points=[];" parent="nf_Whg44I8AfjpseTQWu-377" connectable="0" vertex="1">
          <mxGeometry x="-0.0114" relative="1" as="geometry">
            <mxPoint as="offset" />
          </mxGeometry>
        </mxCell>
        <mxCell id="nf_Whg44I8AfjpseTQWu-379" style="edgeStyle=none;curved=1;rounded=0;orthogonalLoop=1;jettySize=auto;html=1;strokeColor=#60E696;fontSize=12;fontColor=#095C86;startSize=8;endSize=8;fillColor=#F694C1;exitX=0.5;exitY=1;exitDx=0;exitDy=0;entryX=0.5;entryY=0;entryDx=0;entryDy=0;" parent="1" source="nf_Whg44I8AfjpseTQWu-371" target="nf_Whg44I8AfjpseTQWu-372" edge="1">
          <mxGeometry relative="1" as="geometry">
            <mxPoint x="360.58" y="508.00000000000006" as="sourcePoint" />
            <mxPoint x="258.82" y="558.8" as="targetPoint" />
          </mxGeometry>
        </mxCell>
        <mxCell id="nf_Whg44I8AfjpseTQWu-380" value="directed by" style="edgeLabel;html=1;align=center;verticalAlign=middle;resizable=0;points=[];fontSize=12;strokeColor=#AF45ED;fontColor=#095C86;fillColor=#F694C1;" parent="nf_Whg44I8AfjpseTQWu-379" connectable="0" vertex="1">
          <mxGeometry x="-0.1079" y="1" relative="1" as="geometry">
            <mxPoint as="offset" />
          </mxGeometry>
        </mxCell>
        <mxCell id="nf_Whg44I8AfjpseTQWu-381" value="&lt;span&gt;Chapter XXXIX&lt;/span&gt;" style="ellipse;whiteSpace=wrap;html=1;labelBackgroundColor=none;fillColor=#F694C1;strokeColor=#AF45ED;fontColor=#095C86;opacity=70;strokeWidth=2;fontStyle=3" parent="1" vertex="1">
          <mxGeometry x="580" y="475" width="120" height="80" as="geometry" />
        </mxCell>
        <mxCell id="nf_Whg44I8AfjpseTQWu-382" style="edgeStyle=none;curved=1;rounded=0;orthogonalLoop=1;jettySize=auto;html=1;entryX=0;entryY=0;entryDx=0;entryDy=0;strokeColor=#60E696;fontSize=12;fontColor=#095C86;startSize=8;endSize=8;fillColor=#F694C1;exitX=1;exitY=1;exitDx=0;exitDy=0;" parent="1" source="nf_Whg44I8AfjpseTQWu-527" target="nf_Whg44I8AfjpseTQWu-381" edge="1">
          <mxGeometry relative="1" as="geometry">
            <mxPoint x="184.6400000000001" y="216.00000000000009" as="sourcePoint" />
          </mxGeometry>
        </mxCell>
        <mxCell id="nf_Whg44I8AfjpseTQWu-383" value="has chapter" style="edgeLabel;html=1;align=center;verticalAlign=middle;resizable=0;points=[];fontSize=12;strokeColor=#AF45ED;fontColor=#095C86;fillColor=#F694C1;" parent="nf_Whg44I8AfjpseTQWu-382" connectable="0" vertex="1">
          <mxGeometry x="-0.0552" y="3" relative="1" as="geometry">
            <mxPoint y="-1" as="offset" />
          </mxGeometry>
        </mxCell>
        <mxCell id="nf_Whg44I8AfjpseTQWu-384" value="related to" style="edgeStyle=none;curved=1;rounded=0;orthogonalLoop=1;jettySize=auto;html=1;strokeColor=#60E696;fontSize=12;fontColor=#095C86;startSize=8;endSize=8;fillColor=#F694C1;entryX=0;entryY=0.5;entryDx=0;entryDy=0;" parent="1" source="nf_Whg44I8AfjpseTQWu-381" target="nf_Whg44I8AfjpseTQWu-371" edge="1">
          <mxGeometry relative="1" as="geometry">
            <mxPoint x="673" y="542" as="targetPoint" />
            <mxPoint x="688" y="500" as="sourcePoint" />
          </mxGeometry>
        </mxCell>
        <mxCell id="nf_Whg44I8AfjpseTQWu-386" value="1966" style="ellipse;shape=doubleEllipse;whiteSpace=wrap;html=1;strokeColor=default;align=center;verticalAlign=middle;fontFamily=Helvetica;fontSize=12;fontColor=default;fillColor=default;" parent="1" vertex="1">
          <mxGeometry x="1167" y="490" width="100" height="60" as="geometry" />
        </mxCell>
        <mxCell id="nf_Whg44I8AfjpseTQWu-387" value="" style="edgeLabel;html=1;align=center;verticalAlign=middle;resizable=0;points=[];fontSize=12;strokeColor=#AF45ED;fontColor=#095C86;fillColor=#F694C1;" parent="1" connectable="0" vertex="1">
          <mxGeometry x="776.9955219507021" y="522.0008922220455" as="geometry">
            <mxPoint as="offset" />
          </mxGeometry>
        </mxCell>
        <mxCell id="nf_Whg44I8AfjpseTQWu-389" value="&lt;span&gt;Chapter VII&lt;/span&gt;" style="ellipse;whiteSpace=wrap;html=1;labelBackgroundColor=none;fillColor=#F694C1;strokeColor=#AF45ED;fontColor=#095C86;opacity=70;strokeWidth=2;fontStyle=3" parent="1" vertex="1">
          <mxGeometry x="482" y="574" width="120" height="80" as="geometry" />
        </mxCell>
        <mxCell id="nf_Whg44I8AfjpseTQWu-390" style="edgeStyle=none;curved=1;rounded=0;orthogonalLoop=1;jettySize=auto;html=1;entryX=0.5;entryY=0;entryDx=0;entryDy=0;strokeColor=#60E696;fontSize=12;fontColor=#095C86;startSize=8;endSize=8;fillColor=#F694C1;exitX=0.709;exitY=0.962;exitDx=0;exitDy=0;exitPerimeter=0;" parent="1" source="nf_Whg44I8AfjpseTQWu-527" target="nf_Whg44I8AfjpseTQWu-389" edge="1">
          <mxGeometry relative="1" as="geometry">
            <mxPoint x="206" y="246" as="sourcePoint" />
            <mxPoint x="159" y="317" as="targetPoint" />
          </mxGeometry>
        </mxCell>
        <mxCell id="nf_Whg44I8AfjpseTQWu-391" value="has chapter" style="edgeLabel;html=1;align=center;verticalAlign=middle;resizable=0;points=[];fontSize=12;strokeColor=#AF45ED;fontColor=#095C86;fillColor=#F694C1;" parent="nf_Whg44I8AfjpseTQWu-390" connectable="0" vertex="1">
          <mxGeometry x="-0.0552" y="3" relative="1" as="geometry">
            <mxPoint y="-1" as="offset" />
          </mxGeometry>
        </mxCell>
        <mxCell id="nf_Whg44I8AfjpseTQWu-392" value="&lt;i&gt;L&#39;albero di Uak-Uak con i frutti umani&lt;/i&gt;" style="ellipse;whiteSpace=wrap;html=1;labelBackgroundColor=none;fillColor=#F694C1;strokeColor=#AF45ED;fontColor=#095C86;opacity=50;" parent="1" vertex="1">
          <mxGeometry x="838" y="682" width="120" height="80" as="geometry" />
        </mxCell>
        <mxCell id="nf_Whg44I8AfjpseTQWu-393" style="edgeStyle=none;curved=1;rounded=0;orthogonalLoop=1;jettySize=auto;html=1;strokeColor=#60E696;fontSize=12;fontColor=#095C86;startSize=8;endSize=8;fillColor=#F694C1;entryX=0.011;entryY=0.425;entryDx=0;entryDy=0;entryPerimeter=0;" parent="1" source="nf_Whg44I8AfjpseTQWu-389" target="nf_Whg44I8AfjpseTQWu-392" edge="1">
          <mxGeometry relative="1" as="geometry">
            <mxPoint x="287" y="599" as="targetPoint" />
            <mxPoint x="273" y="542" as="sourcePoint" />
          </mxGeometry>
        </mxCell>
        <mxCell id="nf_Whg44I8AfjpseTQWu-394" value="&lt;font style=&quot;font-size: 12px; color: light-dark(rgb(29, 93, 134), rgb(237, 237, 237));&quot;&gt;related to&lt;/font&gt;" style="edgeLabel;html=1;align=center;verticalAlign=middle;resizable=0;points=[];fontStyle=0" parent="nf_Whg44I8AfjpseTQWu-393" connectable="0" vertex="1">
          <mxGeometry x="-0.165" y="1" relative="1" as="geometry">
            <mxPoint as="offset" />
          </mxGeometry>
        </mxCell>
        <mxCell id="nf_Whg44I8AfjpseTQWu-395" value="&lt;span style=&quot;text-align: start; font-size: 10pt; font-family: Arial;&quot; data-sheets-root=&quot;1&quot;&gt;Ibrahim &lt;/span&gt;&lt;span style=&quot;text-align: start; font-size: 10pt; font-family: Arial;&quot; data-sheets-root=&quot;1&quot;&gt;Muteferrika&lt;br&gt;&lt;/span&gt;" style="ellipse;shape=doubleEllipse;whiteSpace=wrap;html=1;strokeColor=default;align=center;verticalAlign=middle;fontFamily=Helvetica;fontSize=12;fontColor=default;fillColor=default;" parent="1" vertex="1">
          <mxGeometry x="1213" y="750" width="100" height="60" as="geometry" />
        </mxCell>
        <mxCell id="nf_Whg44I8AfjpseTQWu-396" value="Illustration" style="ellipse;shape=doubleEllipse;whiteSpace=wrap;html=1;strokeColor=default;align=center;verticalAlign=middle;fontFamily=Helvetica;fontSize=12;fontColor=default;fillColor=default;" parent="1" vertex="1">
          <mxGeometry x="1091" y="775" width="100" height="60" as="geometry" />
        </mxCell>
        <mxCell id="nf_Whg44I8AfjpseTQWu-397" value="1730" style="ellipse;shape=doubleEllipse;whiteSpace=wrap;html=1;strokeColor=default;align=center;verticalAlign=middle;fontFamily=Helvetica;fontSize=12;fontColor=default;fillColor=default;" parent="1" vertex="1">
          <mxGeometry x="1109" y="844" width="100" height="60" as="geometry" />
        </mxCell>
        <mxCell id="nf_Whg44I8AfjpseTQWu-398" value="1970" style="ellipse;shape=doubleEllipse;whiteSpace=wrap;html=1;strokeColor=default;align=center;verticalAlign=middle;fontFamily=Helvetica;fontSize=12;fontColor=default;fillColor=default;" parent="1" vertex="1">
          <mxGeometry x="725" y="977" width="100" height="60" as="geometry" />
        </mxCell>
        <mxCell id="nf_Whg44I8AfjpseTQWu-399" style="edgeStyle=none;curved=1;rounded=0;orthogonalLoop=1;jettySize=auto;html=1;entryX=0.5;entryY=1;entryDx=0;entryDy=0;strokeColor=#60E696;fontSize=12;fontColor=#095C86;startSize=8;endSize=8;fillColor=#F694C1;" parent="1" source="nf_Whg44I8AfjpseTQWu-527" target="nf_Whg44I8AfjpseTQWu-292" edge="1">
          <mxGeometry relative="1" as="geometry">
            <mxPoint x="284" y="180" as="sourcePoint" />
            <mxPoint x="352" y="-92" as="targetPoint" />
          </mxGeometry>
        </mxCell>
        <mxCell id="nf_Whg44I8AfjpseTQWu-400" value="&lt;span style=&quot;color: rgba(0, 0, 0, 0); font-family: monospace; font-size: 0px; text-align: start;&quot;&gt;%3CmxGraphModel%3E%3Croot%3E%3CmxCell%20id%3D%220%22%2F%3E%3CmxCell%20id%3D%221%22%20parent%3D%220%22%2F%3E%3CmxCell%20id%3D%222%22%20value%3D%22written%20by%22%20style%3D%22edgeLabel%3Bhtml%3D1%3Balign%3Dcenter%3BverticalAlign%3Dmiddle%3Bresizable%3D0%3Bpoints%3D%5B%5D%3BfontSize%3D12%3BstrokeColor%3D%23AF45ED%3BfontColor%3D%23095C86%3BfillColor%3D%23F694C1%3B%22%20connectable%3D%220%22%20vertex%3D%221%22%20parent%3D%221%22%3E%3CmxGeometry%20x%3D%22315.5713477645145%22%20y%3D%2257.778677609774604%22%20as%3D%22geometry%22%2F%3E%3C%2FmxCell%3E%3C%2Froot%3E%3C%2FmxGraphModel%3E&lt;/span&gt;" style="edgeLabel;html=1;align=center;verticalAlign=middle;resizable=0;points=[];" parent="nf_Whg44I8AfjpseTQWu-399" connectable="0" vertex="1">
          <mxGeometry x="0.2328" y="6" relative="1" as="geometry">
            <mxPoint y="1" as="offset" />
          </mxGeometry>
        </mxCell>
        <mxCell id="nf_Whg44I8AfjpseTQWu-401" value="&lt;font color=&quot;#095c86&quot;&gt;&lt;span style=&quot;font-size: 12px;&quot;&gt;published in&lt;/span&gt;&lt;/font&gt;" style="edgeLabel;html=1;align=center;verticalAlign=middle;resizable=0;points=[];" parent="nf_Whg44I8AfjpseTQWu-399" connectable="0" vertex="1">
          <mxGeometry x="0.252" relative="1" as="geometry">
            <mxPoint as="offset" />
          </mxGeometry>
        </mxCell>
        <mxCell id="nf_Whg44I8AfjpseTQWu-402" style="edgeStyle=none;curved=1;rounded=0;orthogonalLoop=1;jettySize=auto;html=1;strokeColor=#60E696;fontSize=12;fontColor=#095C86;startSize=8;endSize=8;fillColor=#F694C1;exitX=1;exitY=0.5;exitDx=0;exitDy=0;entryX=0;entryY=0.5;entryDx=0;entryDy=0;" parent="1" source="nf_Whg44I8AfjpseTQWu-392" target="nf_Whg44I8AfjpseTQWu-395" edge="1">
          <mxGeometry relative="1" as="geometry">
            <mxPoint x="478" y="716" as="sourcePoint" />
            <mxPoint x="411" y="772" as="targetPoint" />
          </mxGeometry>
        </mxCell>
        <mxCell id="nf_Whg44I8AfjpseTQWu-403" value="published by" style="edgeLabel;html=1;align=center;verticalAlign=middle;resizable=0;points=[];fontSize=12;strokeColor=#AF45ED;fontColor=#095C86;fillColor=#F694C1;" parent="nf_Whg44I8AfjpseTQWu-402" connectable="0" vertex="1">
          <mxGeometry x="-0.1079" y="1" relative="1" as="geometry">
            <mxPoint as="offset" />
          </mxGeometry>
        </mxCell>
        <mxCell id="nf_Whg44I8AfjpseTQWu-404" style="edgeStyle=none;curved=1;rounded=0;orthogonalLoop=1;jettySize=auto;html=1;strokeColor=#60E696;fontSize=12;fontColor=#095C86;startSize=8;endSize=8;fillColor=#F694C1;exitX=1;exitY=1;exitDx=0;exitDy=0;entryX=0;entryY=0;entryDx=0;entryDy=0;" parent="1" source="nf_Whg44I8AfjpseTQWu-392" target="nf_Whg44I8AfjpseTQWu-397" edge="1">
          <mxGeometry relative="1" as="geometry">
            <mxPoint x="519" y="733" as="sourcePoint" />
            <mxPoint x="473" y="799" as="targetPoint" />
          </mxGeometry>
        </mxCell>
        <mxCell id="nf_Whg44I8AfjpseTQWu-405" value="published in" style="edgeLabel;html=1;align=center;verticalAlign=middle;resizable=0;points=[];fontSize=12;strokeColor=#AF45ED;fontColor=#095C86;fillColor=#F694C1;" parent="nf_Whg44I8AfjpseTQWu-404" connectable="0" vertex="1">
          <mxGeometry x="-0.0436" y="-2" relative="1" as="geometry">
            <mxPoint as="offset" />
          </mxGeometry>
        </mxCell>
        <mxCell id="nf_Whg44I8AfjpseTQWu-406" style="edgeStyle=none;curved=1;rounded=0;orthogonalLoop=1;jettySize=auto;html=1;exitX=0.975;exitY=0.655;exitDx=0;exitDy=0;strokeColor=#60E696;fontSize=12;fontColor=#095C86;startSize=8;endSize=8;fillColor=#F694C1;entryX=0;entryY=0.5;entryDx=0;entryDy=0;exitPerimeter=0;" parent="1" source="nf_Whg44I8AfjpseTQWu-392" target="nf_Whg44I8AfjpseTQWu-396" edge="1">
          <mxGeometry relative="1" as="geometry">
            <mxPoint x="575" y="738" as="sourcePoint" />
            <mxPoint x="578" y="862" as="targetPoint" />
          </mxGeometry>
        </mxCell>
        <mxCell id="nf_Whg44I8AfjpseTQWu-407" value="&lt;font color=&quot;#095c86&quot;&gt;&lt;span style=&quot;font-size: 12px;&quot;&gt;is a&lt;/span&gt;&lt;/font&gt;" style="edgeLabel;html=1;align=center;verticalAlign=middle;resizable=0;points=[];" parent="nf_Whg44I8AfjpseTQWu-406" connectable="0" vertex="1">
          <mxGeometry x="-0.1388" y="-1" relative="1" as="geometry">
            <mxPoint as="offset" />
          </mxGeometry>
        </mxCell>
        <mxCell id="nf_Whg44I8AfjpseTQWu-408" value="&lt;i&gt;Simboli della trasformazione&lt;/i&gt;" style="ellipse;whiteSpace=wrap;html=1;labelBackgroundColor=none;fillColor=#F694C1;strokeColor=#AF45ED;fontColor=#095C86;opacity=20;" parent="1" vertex="1">
          <mxGeometry x="812" y="871" width="120" height="80" as="geometry" />
        </mxCell>
        <mxCell id="nf_Whg44I8AfjpseTQWu-409" style="edgeStyle=none;curved=1;rounded=0;orthogonalLoop=1;jettySize=auto;html=1;strokeColor=#60E696;fontSize=12;fontColor=#095C86;startSize=8;endSize=8;fillColor=#F694C1;exitX=0;exitY=1;exitDx=0;exitDy=0;entryX=0.5;entryY=0;entryDx=0;entryDy=0;" parent="1" source="nf_Whg44I8AfjpseTQWu-392" target="nf_Whg44I8AfjpseTQWu-408" edge="1">
          <mxGeometry relative="1" as="geometry">
            <mxPoint x="465" y="713" as="sourcePoint" />
            <mxPoint x="412" y="780" as="targetPoint" />
          </mxGeometry>
        </mxCell>
        <mxCell id="nf_Whg44I8AfjpseTQWu-410" value="related to" style="edgeLabel;html=1;align=center;verticalAlign=middle;resizable=0;points=[];fontSize=12;strokeColor=#AF45ED;fontColor=#095C86;fillColor=#F694C1;fontStyle=0" parent="nf_Whg44I8AfjpseTQWu-409" connectable="0" vertex="1">
          <mxGeometry x="-0.1079" y="1" relative="1" as="geometry">
            <mxPoint x="2" y="1" as="offset" />
          </mxGeometry>
        </mxCell>
        <mxCell id="nf_Whg44I8AfjpseTQWu-411" value="Monograph" style="ellipse;shape=doubleEllipse;whiteSpace=wrap;html=1;strokeColor=default;align=center;verticalAlign=middle;fontFamily=Helvetica;fontSize=12;fontColor=default;fillColor=default;" parent="1" vertex="1">
          <mxGeometry x="822" y="1024.5" width="100" height="60" as="geometry" />
        </mxCell>
        <mxCell id="nf_Whg44I8AfjpseTQWu-412" value="Carl Gustav Jung" style="ellipse;shape=doubleEllipse;whiteSpace=wrap;html=1;strokeColor=default;align=center;verticalAlign=middle;fontFamily=Helvetica;fontSize=12;fontColor=default;fillColor=default;" parent="1" vertex="1">
          <mxGeometry x="1030" y="971" width="100" height="60" as="geometry" />
        </mxCell>
        <mxCell id="nf_Whg44I8AfjpseTQWu-413" style="edgeStyle=none;curved=1;rounded=0;orthogonalLoop=1;jettySize=auto;html=1;exitX=0.5;exitY=1;exitDx=0;exitDy=0;strokeColor=#60E696;fontSize=12;fontColor=#095C86;startSize=8;endSize=8;fillColor=#F694C1;entryX=0.5;entryY=0;entryDx=0;entryDy=0;" parent="1" source="nf_Whg44I8AfjpseTQWu-408" target="nf_Whg44I8AfjpseTQWu-411" edge="1">
          <mxGeometry relative="1" as="geometry">
            <mxPoint x="478" y="775" as="sourcePoint" />
            <mxPoint x="535" y="829" as="targetPoint" />
          </mxGeometry>
        </mxCell>
        <mxCell id="nf_Whg44I8AfjpseTQWu-414" value="&lt;font color=&quot;#095c86&quot;&gt;&lt;span style=&quot;font-size: 12px;&quot;&gt;is a&lt;/span&gt;&lt;/font&gt;" style="edgeLabel;html=1;align=center;verticalAlign=middle;resizable=0;points=[];" parent="nf_Whg44I8AfjpseTQWu-413" connectable="0" vertex="1">
          <mxGeometry x="-0.1388" y="-1" relative="1" as="geometry">
            <mxPoint as="offset" />
          </mxGeometry>
        </mxCell>
        <mxCell id="nf_Whg44I8AfjpseTQWu-415" style="edgeStyle=none;curved=1;rounded=0;orthogonalLoop=1;jettySize=auto;html=1;exitX=1;exitY=1;exitDx=0;exitDy=0;strokeColor=#60E696;fontSize=12;fontColor=#095C86;startSize=8;endSize=8;fillColor=#F694C1;entryX=0;entryY=0;entryDx=0;entryDy=0;" parent="1" source="nf_Whg44I8AfjpseTQWu-408" target="nf_Whg44I8AfjpseTQWu-412" edge="1">
          <mxGeometry relative="1" as="geometry">
            <mxPoint x="550" y="763" as="sourcePoint" />
            <mxPoint x="607" y="817" as="targetPoint" />
          </mxGeometry>
        </mxCell>
        <mxCell id="nf_Whg44I8AfjpseTQWu-416" value="&lt;font color=&quot;#095c86&quot;&gt;&lt;span style=&quot;font-size: 12px;&quot;&gt;written by&lt;/span&gt;&lt;/font&gt;" style="edgeLabel;html=1;align=center;verticalAlign=middle;resizable=0;points=[];" parent="nf_Whg44I8AfjpseTQWu-415" connectable="0" vertex="1">
          <mxGeometry x="-0.1388" y="-1" relative="1" as="geometry">
            <mxPoint as="offset" />
          </mxGeometry>
        </mxCell>
        <mxCell id="nf_Whg44I8AfjpseTQWu-417" style="edgeStyle=none;curved=1;rounded=0;orthogonalLoop=1;jettySize=auto;html=1;strokeColor=#60E696;fontSize=12;fontColor=#095C86;startSize=8;endSize=8;fillColor=#F694C1;exitX=0;exitY=1;exitDx=0;exitDy=0;entryX=1;entryY=0;entryDx=0;entryDy=0;" parent="1" source="nf_Whg44I8AfjpseTQWu-408" target="nf_Whg44I8AfjpseTQWu-398" edge="1">
          <mxGeometry relative="1" as="geometry">
            <mxPoint x="414" y="742" as="sourcePoint" />
            <mxPoint x="315" y="742" as="targetPoint" />
          </mxGeometry>
        </mxCell>
        <mxCell id="nf_Whg44I8AfjpseTQWu-418" value="published in" style="edgeLabel;html=1;align=center;verticalAlign=middle;resizable=0;points=[];fontSize=12;strokeColor=#AF45ED;fontColor=#095C86;fillColor=#F694C1;" parent="nf_Whg44I8AfjpseTQWu-417" connectable="0" vertex="1">
          <mxGeometry x="-0.1079" y="1" relative="1" as="geometry">
            <mxPoint as="offset" />
          </mxGeometry>
        </mxCell>
        <mxCell id="nf_Whg44I8AfjpseTQWu-419" value="&lt;span&gt;Chapter LXXXIII&lt;/span&gt;" style="ellipse;whiteSpace=wrap;html=1;labelBackgroundColor=none;fillColor=#F694C1;strokeColor=#AF45ED;fontColor=#095C86;opacity=70;strokeWidth=2;fontStyle=3" parent="1" vertex="1">
          <mxGeometry x="337" y="643" width="120" height="80" as="geometry" />
        </mxCell>
        <mxCell id="nf_Whg44I8AfjpseTQWu-420" style="edgeStyle=none;curved=1;rounded=0;orthogonalLoop=1;jettySize=auto;html=1;entryX=0.5;entryY=0;entryDx=0;entryDy=0;strokeColor=#60E696;fontSize=12;fontColor=#095C86;startSize=8;endSize=8;fillColor=#F694C1;exitX=0.5;exitY=1;exitDx=0;exitDy=0;" parent="1" source="nf_Whg44I8AfjpseTQWu-527" target="nf_Whg44I8AfjpseTQWu-419" edge="1">
          <mxGeometry relative="1" as="geometry">
            <mxPoint x="214" y="257" as="sourcePoint" />
            <mxPoint x="244" y="392" as="targetPoint" />
          </mxGeometry>
        </mxCell>
        <mxCell id="nf_Whg44I8AfjpseTQWu-421" value="has chapter" style="edgeLabel;html=1;align=center;verticalAlign=middle;resizable=0;points=[];fontSize=12;strokeColor=#AF45ED;fontColor=#095C86;fillColor=#F694C1;" parent="nf_Whg44I8AfjpseTQWu-420" connectable="0" vertex="1">
          <mxGeometry x="-0.0552" y="3" relative="1" as="geometry">
            <mxPoint y="-1" as="offset" />
          </mxGeometry>
        </mxCell>
        <mxCell id="nf_Whg44I8AfjpseTQWu-422" style="edgeStyle=none;curved=1;rounded=0;orthogonalLoop=1;jettySize=auto;html=1;strokeColor=#60E696;fontSize=12;fontColor=#095C86;startSize=8;endSize=8;fillColor=#F694C1;exitX=0.759;exitY=0.911;exitDx=0;exitDy=0;entryX=0.5;entryY=0;entryDx=0;entryDy=0;exitPerimeter=0;" parent="1" source="nf_Whg44I8AfjpseTQWu-419" target="nf_Whg44I8AfjpseTQWu-424" edge="1">
          <mxGeometry relative="1" as="geometry">
            <mxPoint x="274" y="623" as="targetPoint" />
            <mxPoint x="250" y="586" as="sourcePoint" />
          </mxGeometry>
        </mxCell>
        <mxCell id="nf_Whg44I8AfjpseTQWu-423" value="related to" style="edgeLabel;html=1;align=center;verticalAlign=middle;resizable=0;points=[];fontSize=12;strokeColor=#AF45ED;fontColor=#095C86;fillColor=#F694C1;fontStyle=0" parent="nf_Whg44I8AfjpseTQWu-422" connectable="0" vertex="1">
          <mxGeometry x="-0.2238" y="2" relative="1" as="geometry">
            <mxPoint as="offset" />
          </mxGeometry>
        </mxCell>
        <mxCell id="nf_Whg44I8AfjpseTQWu-424" value="&lt;i&gt;Rooney, Monroe&amp;nbsp;&lt;/i&gt;&lt;div&gt;&lt;i&gt;a&lt;/i&gt;&lt;i style=&quot;background-color: initial;&quot;&gt;nd Anthony&lt;/i&gt;&lt;/div&gt;" style="ellipse;whiteSpace=wrap;html=1;labelBackgroundColor=none;fillColor=#F694C1;strokeColor=#AF45ED;fontColor=#095C86;opacity=50;" parent="1" vertex="1">
          <mxGeometry x="460" y="964" width="120" height="80" as="geometry" />
        </mxCell>
        <mxCell id="nf_Whg44I8AfjpseTQWu-425" value="1952" style="ellipse;shape=doubleEllipse;whiteSpace=wrap;html=1;strokeColor=default;align=center;verticalAlign=middle;fontFamily=Helvetica;fontSize=12;fontColor=default;fillColor=default;" parent="1" vertex="1">
          <mxGeometry x="375" y="1133" width="100" height="60" as="geometry" />
        </mxCell>
        <mxCell id="nf_Whg44I8AfjpseTQWu-426" value="Photograph" style="ellipse;shape=doubleEllipse;whiteSpace=wrap;html=1;strokeColor=default;align=center;verticalAlign=middle;fontFamily=Helvetica;fontSize=12;fontColor=default;fillColor=default;" parent="1" vertex="1">
          <mxGeometry x="615" y="1097" width="100" height="60" as="geometry" />
        </mxCell>
        <mxCell id="nf_Whg44I8AfjpseTQWu-427" value="Pictorial Parade" style="ellipse;shape=doubleEllipse;whiteSpace=wrap;html=1;strokeColor=default;align=center;verticalAlign=middle;fontFamily=Helvetica;fontSize=12;fontColor=default;fillColor=default;" parent="1" vertex="1">
          <mxGeometry x="554" y="1160" width="100" height="60" as="geometry" />
        </mxCell>
        <mxCell id="nf_Whg44I8AfjpseTQWu-428" style="edgeStyle=none;curved=1;rounded=0;orthogonalLoop=1;jettySize=auto;html=1;strokeColor=#60E696;fontSize=12;fontColor=#095C86;startSize=8;endSize=8;fillColor=#F694C1;entryX=0;entryY=0;entryDx=0;entryDy=0;exitX=1;exitY=1;exitDx=0;exitDy=0;" parent="1" source="nf_Whg44I8AfjpseTQWu-424" target="nf_Whg44I8AfjpseTQWu-426" edge="1">
          <mxGeometry relative="1" as="geometry">
            <mxPoint x="479" y="1040" as="sourcePoint" />
            <mxPoint x="133" y="794" as="targetPoint" />
          </mxGeometry>
        </mxCell>
        <mxCell id="nf_Whg44I8AfjpseTQWu-429" value="&lt;font color=&quot;#095c86&quot;&gt;&lt;span style=&quot;font-size: 12px;&quot;&gt;is a&lt;/span&gt;&lt;/font&gt;" style="edgeLabel;html=1;align=center;verticalAlign=middle;resizable=0;points=[];" parent="nf_Whg44I8AfjpseTQWu-428" connectable="0" vertex="1">
          <mxGeometry x="-0.1388" y="-1" relative="1" as="geometry">
            <mxPoint as="offset" />
          </mxGeometry>
        </mxCell>
        <mxCell id="nf_Whg44I8AfjpseTQWu-430" style="edgeStyle=none;curved=1;rounded=0;orthogonalLoop=1;jettySize=auto;html=1;exitX=0;exitY=1;exitDx=0;exitDy=0;strokeColor=#60E696;fontSize=12;fontColor=#095C86;startSize=8;endSize=8;fillColor=#F694C1;entryX=0.5;entryY=0;entryDx=0;entryDy=0;" parent="1" source="nf_Whg44I8AfjpseTQWu-424" target="nf_Whg44I8AfjpseTQWu-425" edge="1">
          <mxGeometry relative="1" as="geometry">
            <mxPoint x="117" y="640" as="sourcePoint" />
            <mxPoint x="74" y="733" as="targetPoint" />
          </mxGeometry>
        </mxCell>
        <mxCell id="nf_Whg44I8AfjpseTQWu-431" value="&lt;font color=&quot;#095c86&quot;&gt;&lt;span style=&quot;font-size: 12px;&quot;&gt;created in&lt;/span&gt;&lt;/font&gt;" style="edgeLabel;html=1;align=center;verticalAlign=middle;resizable=0;points=[];" parent="nf_Whg44I8AfjpseTQWu-430" connectable="0" vertex="1">
          <mxGeometry x="-0.1388" y="-1" relative="1" as="geometry">
            <mxPoint x="-3" y="14" as="offset" />
          </mxGeometry>
        </mxCell>
        <mxCell id="nf_Whg44I8AfjpseTQWu-432" style="edgeStyle=none;curved=1;rounded=0;orthogonalLoop=1;jettySize=auto;html=1;exitX=0.625;exitY=1;exitDx=0;exitDy=0;strokeColor=#60E696;fontSize=12;fontColor=#095C86;startSize=8;endSize=8;fillColor=#F694C1;entryX=0.5;entryY=0;entryDx=0;entryDy=0;exitPerimeter=0;" parent="1" source="nf_Whg44I8AfjpseTQWu-424" target="nf_Whg44I8AfjpseTQWu-427" edge="1">
          <mxGeometry relative="1" as="geometry">
            <mxPoint x="56" y="579" as="sourcePoint" />
            <mxPoint x="13" y="672" as="targetPoint" />
          </mxGeometry>
        </mxCell>
        <mxCell id="nf_Whg44I8AfjpseTQWu-433" value="&lt;font color=&quot;#095c86&quot;&gt;&lt;span style=&quot;font-size: 12px;&quot;&gt;taken by&lt;/span&gt;&lt;/font&gt;" style="edgeLabel;html=1;align=center;verticalAlign=middle;resizable=0;points=[];" parent="nf_Whg44I8AfjpseTQWu-432" connectable="0" vertex="1">
          <mxGeometry x="-0.1388" y="-1" relative="1" as="geometry">
            <mxPoint y="2" as="offset" />
          </mxGeometry>
        </mxCell>
        <mxCell id="nf_Whg44I8AfjpseTQWu-434" value="" style="edgeStyle=none;curved=1;rounded=0;orthogonalLoop=1;jettySize=auto;html=1;strokeColor=#60E696;fontSize=12;fontColor=#095C86;startSize=8;endSize=8;fillColor=#F694C1;entryX=0;entryY=0.5;entryDx=0;entryDy=0;" parent="1" source="nf_Whg44I8AfjpseTQWu-357" target="nf_Whg44I8AfjpseTQWu-360" edge="1">
          <mxGeometry relative="1" as="geometry">
            <mxPoint x="973" y="437" as="targetPoint" />
            <mxPoint x="804" y="378" as="sourcePoint" />
          </mxGeometry>
        </mxCell>
        <mxCell id="nf_Whg44I8AfjpseTQWu-435" value="related to" style="edgeLabel;html=1;align=center;verticalAlign=middle;resizable=0;points=[];fontSize=12;strokeColor=#AF45ED;fontColor=#095C86;fillColor=#F694C1;fontStyle=0" parent="nf_Whg44I8AfjpseTQWu-434" connectable="0" vertex="1">
          <mxGeometry x="-0.2238" y="2" relative="1" as="geometry">
            <mxPoint x="21" y="5" as="offset" />
          </mxGeometry>
        </mxCell>
        <mxCell id="nf_Whg44I8AfjpseTQWu-436" value="&lt;i&gt;Marilyn&lt;/i&gt;" style="ellipse;whiteSpace=wrap;html=1;labelBackgroundColor=none;fillColor=#F694C1;strokeColor=#AF45ED;fontColor=#095C86;opacity=20;" parent="1" vertex="1">
          <mxGeometry x="724" y="1097" width="120" height="80" as="geometry" />
        </mxCell>
        <mxCell id="nf_Whg44I8AfjpseTQWu-437" style="edgeStyle=none;curved=1;rounded=0;orthogonalLoop=1;jettySize=auto;html=1;strokeColor=#60E696;fontSize=12;fontColor=#095C86;startSize=8;endSize=8;fillColor=#F694C1;exitX=1;exitY=0.5;exitDx=0;exitDy=0;entryX=0;entryY=0;entryDx=0;entryDy=0;" parent="1" source="nf_Whg44I8AfjpseTQWu-424" target="nf_Whg44I8AfjpseTQWu-436" edge="1">
          <mxGeometry relative="1" as="geometry">
            <mxPoint x="636" y="1298" as="targetPoint" />
            <mxPoint x="564" y="1044" as="sourcePoint" />
          </mxGeometry>
        </mxCell>
        <mxCell id="nf_Whg44I8AfjpseTQWu-438" value="related to" style="edgeLabel;html=1;align=center;verticalAlign=middle;resizable=0;points=[];fontSize=12;strokeColor=#AF45ED;fontColor=#095C86;fillColor=#F694C1;fontStyle=0" parent="nf_Whg44I8AfjpseTQWu-437" connectable="0" vertex="1">
          <mxGeometry x="-0.2238" y="2" relative="1" as="geometry">
            <mxPoint as="offset" />
          </mxGeometry>
        </mxCell>
        <mxCell id="nf_Whg44I8AfjpseTQWu-439" value="Song" style="ellipse;shape=doubleEllipse;whiteSpace=wrap;html=1;strokeColor=default;align=center;verticalAlign=middle;fontFamily=Helvetica;fontSize=12;fontColor=default;fillColor=default;" parent="1" vertex="1">
          <mxGeometry x="919" y="1170" width="100" height="60" as="geometry" />
        </mxCell>
        <mxCell id="nf_Whg44I8AfjpseTQWu-440" style="edgeStyle=none;curved=1;rounded=0;orthogonalLoop=1;jettySize=auto;html=1;strokeColor=#60E696;fontSize=12;fontColor=#095C86;startSize=8;endSize=8;fillColor=#F694C1;entryX=0;entryY=0;entryDx=0;entryDy=0;exitX=1;exitY=0.5;exitDx=0;exitDy=0;" parent="1" source="nf_Whg44I8AfjpseTQWu-436" target="nf_Whg44I8AfjpseTQWu-439" edge="1">
          <mxGeometry relative="1" as="geometry">
            <mxPoint x="818.8564068712027" y="1208.004271247469" as="sourcePoint" />
            <mxPoint x="529" y="995.72" as="targetPoint" />
          </mxGeometry>
        </mxCell>
        <mxCell id="nf_Whg44I8AfjpseTQWu-441" value="&lt;font color=&quot;#095c86&quot;&gt;&lt;span style=&quot;font-size: 12px;&quot;&gt;is a&lt;/span&gt;&lt;/font&gt;" style="edgeLabel;html=1;align=center;verticalAlign=middle;resizable=0;points=[];" parent="nf_Whg44I8AfjpseTQWu-440" connectable="0" vertex="1">
          <mxGeometry x="-0.1388" y="-1" relative="1" as="geometry">
            <mxPoint as="offset" />
          </mxGeometry>
        </mxCell>
        <mxCell id="nf_Whg44I8AfjpseTQWu-442" value="Ray Anthony" style="ellipse;shape=doubleEllipse;whiteSpace=wrap;html=1;strokeColor=default;align=center;verticalAlign=middle;fontFamily=Helvetica;fontSize=12;fontColor=default;fillColor=default;" parent="1" vertex="1">
          <mxGeometry x="797" y="1352" width="100" height="60" as="geometry" />
        </mxCell>
        <mxCell id="nf_Whg44I8AfjpseTQWu-443" style="edgeStyle=none;curved=1;rounded=0;orthogonalLoop=1;jettySize=auto;html=1;strokeColor=#60E696;fontSize=12;fontColor=#095C86;startSize=8;endSize=8;fillColor=#F694C1;entryX=0.5;entryY=0;entryDx=0;entryDy=0;exitX=0.733;exitY=0.949;exitDx=0;exitDy=0;exitPerimeter=0;" parent="1" source="nf_Whg44I8AfjpseTQWu-436" target="nf_Whg44I8AfjpseTQWu-442" edge="1">
          <mxGeometry relative="1" as="geometry">
            <mxPoint x="814" y="1249" as="sourcePoint" />
            <mxPoint x="435" y="995" as="targetPoint" />
          </mxGeometry>
        </mxCell>
        <mxCell id="nf_Whg44I8AfjpseTQWu-444" value="&lt;font color=&quot;#095c86&quot;&gt;&lt;span style=&quot;font-size: 12px;&quot;&gt;executed by&lt;/span&gt;&lt;/font&gt;" style="edgeLabel;html=1;align=center;verticalAlign=middle;resizable=0;points=[];" parent="nf_Whg44I8AfjpseTQWu-443" connectable="0" vertex="1">
          <mxGeometry x="-0.1388" y="-1" relative="1" as="geometry">
            <mxPoint as="offset" />
          </mxGeometry>
        </mxCell>
        <mxCell id="nf_Whg44I8AfjpseTQWu-445" value="1952" style="ellipse;shape=doubleEllipse;whiteSpace=wrap;html=1;strokeColor=default;align=center;verticalAlign=middle;fontFamily=Helvetica;fontSize=12;fontColor=default;fillColor=default;" parent="1" vertex="1">
          <mxGeometry x="727" y="1283" width="100" height="60" as="geometry" />
        </mxCell>
        <mxCell id="nf_Whg44I8AfjpseTQWu-446" style="edgeStyle=none;curved=1;rounded=0;orthogonalLoop=1;jettySize=auto;html=1;strokeColor=#60E696;fontSize=12;fontColor=#095C86;startSize=8;endSize=8;fillColor=#F694C1;entryX=0.5;entryY=0;entryDx=0;entryDy=0;exitX=0.5;exitY=1;exitDx=0;exitDy=0;" parent="1" source="nf_Whg44I8AfjpseTQWu-436" target="nf_Whg44I8AfjpseTQWu-445" edge="1">
          <mxGeometry relative="1" as="geometry">
            <mxPoint x="768" y="1217" as="sourcePoint" />
            <mxPoint x="389" y="963" as="targetPoint" />
          </mxGeometry>
        </mxCell>
        <mxCell id="nf_Whg44I8AfjpseTQWu-447" value="&lt;font color=&quot;#095c86&quot;&gt;&lt;span style=&quot;font-size: 12px;&quot;&gt;published in&lt;/span&gt;&lt;/font&gt;" style="edgeLabel;html=1;align=center;verticalAlign=middle;resizable=0;points=[];" parent="nf_Whg44I8AfjpseTQWu-446" connectable="0" vertex="1">
          <mxGeometry x="-0.1388" y="-1" relative="1" as="geometry">
            <mxPoint as="offset" />
          </mxGeometry>
        </mxCell>
        <mxCell id="nf_Whg44I8AfjpseTQWu-448" value="Ervin Drake, Jimmy Shirl" style="ellipse;shape=doubleEllipse;whiteSpace=wrap;html=1;strokeColor=default;align=center;verticalAlign=middle;fontFamily=Helvetica;fontSize=12;fontColor=default;fillColor=default;" parent="1" vertex="1">
          <mxGeometry x="605" y="1261" width="100" height="60" as="geometry" />
        </mxCell>
        <mxCell id="nf_Whg44I8AfjpseTQWu-449" style="edgeStyle=none;curved=1;rounded=0;orthogonalLoop=1;jettySize=auto;html=1;strokeColor=#60E696;fontSize=12;fontColor=#095C86;startSize=8;endSize=8;fillColor=#F694C1;entryX=0.5;entryY=0;entryDx=0;entryDy=0;exitX=0;exitY=1;exitDx=0;exitDy=0;" parent="1" source="nf_Whg44I8AfjpseTQWu-436" target="nf_Whg44I8AfjpseTQWu-448" edge="1">
          <mxGeometry relative="1" as="geometry">
            <mxPoint x="616" y="1146" as="sourcePoint" />
            <mxPoint x="237" y="892" as="targetPoint" />
          </mxGeometry>
        </mxCell>
        <mxCell id="nf_Whg44I8AfjpseTQWu-450" value="&lt;font color=&quot;#095c86&quot;&gt;&lt;span style=&quot;font-size: 12px;&quot;&gt;composed by&lt;/span&gt;&lt;/font&gt;" style="edgeLabel;html=1;align=center;verticalAlign=middle;resizable=0;points=[];" parent="nf_Whg44I8AfjpseTQWu-449" connectable="0" vertex="1">
          <mxGeometry x="-0.1388" y="-1" relative="1" as="geometry">
            <mxPoint as="offset" />
          </mxGeometry>
        </mxCell>
        <mxCell id="nf_Whg44I8AfjpseTQWu-451" value="&lt;span&gt;Chapter CIX&lt;/span&gt;" style="ellipse;whiteSpace=wrap;html=1;labelBackgroundColor=none;fillColor=#F694C1;strokeColor=#AF45ED;fontColor=#095C86;opacity=70;strokeWidth=2;fontStyle=3" parent="1" vertex="1">
          <mxGeometry x="129" y="643" width="120" height="80" as="geometry" />
        </mxCell>
        <mxCell id="nf_Whg44I8AfjpseTQWu-452" style="edgeStyle=none;curved=1;rounded=0;orthogonalLoop=1;jettySize=auto;html=1;entryX=0.5;entryY=0;entryDx=0;entryDy=0;strokeColor=#60E696;fontSize=12;fontColor=#095C86;startSize=8;endSize=8;fillColor=#F694C1;exitX=0.302;exitY=0.95;exitDx=0;exitDy=0;exitPerimeter=0;" parent="1" source="nf_Whg44I8AfjpseTQWu-527" target="nf_Whg44I8AfjpseTQWu-451" edge="1">
          <mxGeometry relative="1" as="geometry">
            <mxPoint x="26" y="419" as="sourcePoint" />
            <mxPoint x="-23" y="498" as="targetPoint" />
          </mxGeometry>
        </mxCell>
        <mxCell id="nf_Whg44I8AfjpseTQWu-453" value="has chapter" style="edgeLabel;html=1;align=center;verticalAlign=middle;resizable=0;points=[];fontSize=12;strokeColor=#AF45ED;fontColor=#095C86;fillColor=#F694C1;" parent="nf_Whg44I8AfjpseTQWu-452" connectable="0" vertex="1">
          <mxGeometry x="-0.0552" y="3" relative="1" as="geometry">
            <mxPoint y="-1" as="offset" />
          </mxGeometry>
        </mxCell>
        <mxCell id="nf_Whg44I8AfjpseTQWu-454" style="edgeStyle=none;curved=1;rounded=0;orthogonalLoop=1;jettySize=auto;html=1;strokeColor=#60E696;fontSize=12;fontColor=#095C86;startSize=8;endSize=8;fillColor=#F694C1;exitX=0.5;exitY=1;exitDx=0;exitDy=0;entryX=0.5;entryY=0;entryDx=0;entryDy=0;" parent="1" source="nf_Whg44I8AfjpseTQWu-451" target="nf_Whg44I8AfjpseTQWu-456" edge="1">
          <mxGeometry relative="1" as="geometry">
            <mxPoint x="7" y="729" as="targetPoint" />
            <mxPoint x="-17" y="692" as="sourcePoint" />
          </mxGeometry>
        </mxCell>
        <mxCell id="nf_Whg44I8AfjpseTQWu-455" value="related to" style="edgeLabel;html=1;align=center;verticalAlign=middle;resizable=0;points=[];fontSize=12;strokeColor=#AF45ED;fontColor=#095C86;fillColor=#F694C1;fontStyle=0" parent="nf_Whg44I8AfjpseTQWu-454" connectable="0" vertex="1">
          <mxGeometry x="-0.2238" y="2" relative="1" as="geometry">
            <mxPoint as="offset" />
          </mxGeometry>
        </mxCell>
        <mxCell id="nf_Whg44I8AfjpseTQWu-456" value="&lt;i&gt;Go for your Money&lt;/i&gt;" style="ellipse;whiteSpace=wrap;html=1;labelBackgroundColor=none;fillColor=#F694C1;strokeColor=#AF45ED;fontColor=#095C86;opacity=50;" parent="1" vertex="1">
          <mxGeometry x="161.5" y="1001" width="120" height="80" as="geometry" />
        </mxCell>
        <mxCell id="nf_Whg44I8AfjpseTQWu-457" value="1966" style="ellipse;shape=doubleEllipse;whiteSpace=wrap;html=1;strokeColor=default;align=center;verticalAlign=middle;fontFamily=Helvetica;fontSize=12;fontColor=default;fillColor=default;" parent="1" vertex="1">
          <mxGeometry x="66" y="1173" width="100" height="60" as="geometry" />
        </mxCell>
        <mxCell id="nf_Whg44I8AfjpseTQWu-458" value="Animated Film" style="ellipse;shape=doubleEllipse;whiteSpace=wrap;html=1;strokeColor=default;align=center;verticalAlign=middle;fontFamily=Helvetica;fontSize=12;fontColor=default;fillColor=default;" parent="1" vertex="1">
          <mxGeometry x="213" y="1187.72" width="100" height="60" as="geometry" />
        </mxCell>
        <mxCell id="nf_Whg44I8AfjpseTQWu-459" value="Magdalo&amp;nbsp;&lt;div&gt;Mussio&lt;/div&gt;" style="ellipse;shape=doubleEllipse;whiteSpace=wrap;html=1;strokeColor=default;align=center;verticalAlign=middle;fontFamily=Helvetica;fontSize=12;fontColor=default;fillColor=default;" parent="1" vertex="1">
          <mxGeometry x="129" y="1250" width="100" height="60" as="geometry" />
        </mxCell>
        <mxCell id="nf_Whg44I8AfjpseTQWu-460" style="edgeStyle=none;curved=1;rounded=0;orthogonalLoop=1;jettySize=auto;html=1;strokeColor=#60E696;fontSize=12;fontColor=#095C86;startSize=8;endSize=8;fillColor=#F694C1;entryX=0.5;entryY=0;entryDx=0;entryDy=0;exitX=0.715;exitY=0.965;exitDx=0;exitDy=0;exitPerimeter=0;" parent="1" source="nf_Whg44I8AfjpseTQWu-456" target="nf_Whg44I8AfjpseTQWu-458" edge="1">
          <mxGeometry relative="1" as="geometry">
            <mxPoint x="249.5" y="1122.72" as="sourcePoint" />
            <mxPoint x="-82.5" y="946.72" as="targetPoint" />
          </mxGeometry>
        </mxCell>
        <mxCell id="nf_Whg44I8AfjpseTQWu-461" value="&lt;font color=&quot;#095c86&quot;&gt;&lt;span style=&quot;font-size: 12px;&quot;&gt;is a&lt;/span&gt;&lt;/font&gt;" style="edgeLabel;html=1;align=center;verticalAlign=middle;resizable=0;points=[];" parent="nf_Whg44I8AfjpseTQWu-460" connectable="0" vertex="1">
          <mxGeometry x="-0.1388" y="-1" relative="1" as="geometry">
            <mxPoint as="offset" />
          </mxGeometry>
        </mxCell>
        <mxCell id="nf_Whg44I8AfjpseTQWu-462" style="edgeStyle=none;curved=1;rounded=0;orthogonalLoop=1;jettySize=auto;html=1;exitX=0;exitY=1;exitDx=0;exitDy=0;strokeColor=#60E696;fontSize=12;fontColor=#095C86;startSize=8;endSize=8;fillColor=#F694C1;entryX=0.5;entryY=0;entryDx=0;entryDy=0;" parent="1" source="nf_Whg44I8AfjpseTQWu-456" target="nf_Whg44I8AfjpseTQWu-457" edge="1">
          <mxGeometry relative="1" as="geometry">
            <mxPoint x="207.07359312880726" y="1111.0042712474622" as="sourcePoint" />
            <mxPoint x="-141.5" y="885.72" as="targetPoint" />
          </mxGeometry>
        </mxCell>
        <mxCell id="nf_Whg44I8AfjpseTQWu-463" value="&lt;font color=&quot;#095c86&quot;&gt;&lt;span style=&quot;font-size: 12px;&quot;&gt;published in&lt;/span&gt;&lt;/font&gt;" style="edgeLabel;html=1;align=center;verticalAlign=middle;resizable=0;points=[];" parent="nf_Whg44I8AfjpseTQWu-462" connectable="0" vertex="1">
          <mxGeometry x="-0.1388" y="-1" relative="1" as="geometry">
            <mxPoint as="offset" />
          </mxGeometry>
        </mxCell>
        <mxCell id="nf_Whg44I8AfjpseTQWu-464" style="edgeStyle=none;curved=1;rounded=0;orthogonalLoop=1;jettySize=auto;html=1;exitX=0.5;exitY=1;exitDx=0;exitDy=0;strokeColor=#60E696;fontSize=12;fontColor=#095C86;startSize=8;endSize=8;fillColor=#F694C1;entryX=0.5;entryY=0;entryDx=0;entryDy=0;" parent="1" source="nf_Whg44I8AfjpseTQWu-456" target="nf_Whg44I8AfjpseTQWu-459" edge="1">
          <mxGeometry relative="1" as="geometry">
            <mxPoint x="230.1800000000003" y="1120.72" as="sourcePoint" />
            <mxPoint x="-202.5" y="824.72" as="targetPoint" />
          </mxGeometry>
        </mxCell>
        <mxCell id="nf_Whg44I8AfjpseTQWu-465" value="&lt;font color=&quot;#095c86&quot;&gt;&lt;span style=&quot;font-size: 12px;&quot;&gt;created by&lt;/span&gt;&lt;/font&gt;" style="edgeLabel;html=1;align=center;verticalAlign=middle;resizable=0;points=[];" parent="nf_Whg44I8AfjpseTQWu-464" connectable="0" vertex="1">
          <mxGeometry x="-0.1388" y="-1" relative="1" as="geometry">
            <mxPoint as="offset" />
          </mxGeometry>
        </mxCell>
        <mxCell id="nf_Whg44I8AfjpseTQWu-466" style="edgeStyle=none;curved=1;rounded=0;orthogonalLoop=1;jettySize=auto;html=1;strokeColor=#60E696;fontSize=12;fontColor=#095C86;startSize=8;endSize=8;fillColor=#F694C1;exitX=0;exitY=1;exitDx=0;exitDy=0;entryX=0.5;entryY=0;entryDx=0;entryDy=0;" parent="1" source="nf_Whg44I8AfjpseTQWu-451" target="nf_Whg44I8AfjpseTQWu-468" edge="1">
          <mxGeometry relative="1" as="geometry">
            <mxPoint x="82" y="1001" as="targetPoint" />
            <mxPoint x="118" y="719" as="sourcePoint" />
          </mxGeometry>
        </mxCell>
        <mxCell id="nf_Whg44I8AfjpseTQWu-467" value="related to" style="edgeLabel;html=1;align=center;verticalAlign=middle;resizable=0;points=[];fontSize=12;strokeColor=#AF45ED;fontColor=#095C86;fillColor=#F694C1;fontStyle=0" parent="nf_Whg44I8AfjpseTQWu-466" connectable="0" vertex="1">
          <mxGeometry x="-0.2238" y="2" relative="1" as="geometry">
            <mxPoint as="offset" />
          </mxGeometry>
        </mxCell>
        <mxCell id="nf_Whg44I8AfjpseTQWu-468" value="&lt;i&gt;Lady from Shanghai&lt;/i&gt;" style="ellipse;whiteSpace=wrap;html=1;labelBackgroundColor=none;fillColor=#F694C1;strokeColor=#AF45ED;fontColor=#095C86;opacity=50;" parent="1" vertex="1">
          <mxGeometry x="-37" y="951" width="120" height="80" as="geometry" />
        </mxCell>
        <mxCell id="nf_Whg44I8AfjpseTQWu-469" value="1948" style="ellipse;shape=doubleEllipse;whiteSpace=wrap;html=1;strokeColor=default;align=center;verticalAlign=middle;fontFamily=Helvetica;fontSize=12;fontColor=default;fillColor=default;" parent="1" vertex="1">
          <mxGeometry x="-227" y="1073" width="100" height="60" as="geometry" />
        </mxCell>
        <mxCell id="nf_Whg44I8AfjpseTQWu-470" value="Film" style="ellipse;shape=doubleEllipse;whiteSpace=wrap;html=1;strokeColor=default;align=center;verticalAlign=middle;fontFamily=Helvetica;fontSize=12;fontColor=default;fillColor=default;" parent="1" vertex="1">
          <mxGeometry x="-34" y="1118" width="100" height="60" as="geometry" />
        </mxCell>
        <mxCell id="nf_Whg44I8AfjpseTQWu-471" value="Orson Welle&lt;span style=&quot;background-color: initial;&quot;&gt;s&lt;/span&gt;" style="ellipse;shape=doubleEllipse;whiteSpace=wrap;html=1;strokeColor=default;align=center;verticalAlign=middle;fontFamily=Helvetica;fontSize=12;fontColor=default;fillColor=default;" parent="1" vertex="1">
          <mxGeometry x="-149" y="1153" width="100" height="60" as="geometry" />
        </mxCell>
        <mxCell id="nf_Whg44I8AfjpseTQWu-472" style="edgeStyle=none;curved=1;rounded=0;orthogonalLoop=1;jettySize=auto;html=1;strokeColor=#60E696;fontSize=12;fontColor=#095C86;startSize=8;endSize=8;fillColor=#F694C1;entryX=0.5;entryY=0;entryDx=0;entryDy=0;exitX=1;exitY=1;exitDx=0;exitDy=0;" parent="1" source="nf_Whg44I8AfjpseTQWu-468" target="nf_Whg44I8AfjpseTQWu-470" edge="1">
          <mxGeometry relative="1" as="geometry">
            <mxPoint x="-68.5" y="1029" as="sourcePoint" />
            <mxPoint x="-415" y="906.72" as="targetPoint" />
          </mxGeometry>
        </mxCell>
        <mxCell id="nf_Whg44I8AfjpseTQWu-473" value="&lt;font color=&quot;#095c86&quot;&gt;&lt;span style=&quot;font-size: 12px;&quot;&gt;is a&lt;/span&gt;&lt;/font&gt;" style="edgeLabel;html=1;align=center;verticalAlign=middle;resizable=0;points=[];" parent="nf_Whg44I8AfjpseTQWu-472" connectable="0" vertex="1">
          <mxGeometry x="-0.1388" y="-1" relative="1" as="geometry">
            <mxPoint as="offset" />
          </mxGeometry>
        </mxCell>
        <mxCell id="nf_Whg44I8AfjpseTQWu-474" style="edgeStyle=none;curved=1;rounded=0;orthogonalLoop=1;jettySize=auto;html=1;exitX=0;exitY=1;exitDx=0;exitDy=0;strokeColor=#60E696;fontSize=12;fontColor=#095C86;startSize=8;endSize=8;fillColor=#F694C1;entryX=1;entryY=0;entryDx=0;entryDy=0;" parent="1" source="nf_Whg44I8AfjpseTQWu-468" target="nf_Whg44I8AfjpseTQWu-469" edge="1">
          <mxGeometry relative="1" as="geometry">
            <mxPoint x="-153.5" y="1029" as="sourcePoint" />
            <mxPoint x="-474" y="845.72" as="targetPoint" />
          </mxGeometry>
        </mxCell>
        <mxCell id="nf_Whg44I8AfjpseTQWu-475" value="&lt;font style=&quot;font-size: 12px;&quot; color=&quot;#095c86&quot;&gt;released in&lt;br&gt;&lt;/font&gt;" style="edgeLabel;html=1;align=center;verticalAlign=middle;resizable=0;points=[];" parent="nf_Whg44I8AfjpseTQWu-474" connectable="0" vertex="1">
          <mxGeometry x="-0.1388" y="-1" relative="1" as="geometry">
            <mxPoint as="offset" />
          </mxGeometry>
        </mxCell>
        <mxCell id="nf_Whg44I8AfjpseTQWu-476" style="edgeStyle=none;curved=1;rounded=0;orthogonalLoop=1;jettySize=auto;html=1;exitX=0.5;exitY=1;exitDx=0;exitDy=0;strokeColor=#60E696;fontSize=12;fontColor=#095C86;startSize=8;endSize=8;fillColor=#F694C1;entryX=0.5;entryY=0;entryDx=0;entryDy=0;" parent="1" source="nf_Whg44I8AfjpseTQWu-468" target="nf_Whg44I8AfjpseTQWu-471" edge="1">
          <mxGeometry relative="1" as="geometry">
            <mxPoint x="-110.5" y="1041" as="sourcePoint" />
            <mxPoint x="-535" y="784.72" as="targetPoint" />
          </mxGeometry>
        </mxCell>
        <mxCell id="nf_Whg44I8AfjpseTQWu-477" value="&lt;font color=&quot;#095c86&quot;&gt;&lt;span style=&quot;font-size: 12px;&quot;&gt;directed&lt;/span&gt;&lt;/font&gt;&lt;span style=&quot;font-size: 12px; color: rgb(9, 92, 134);&quot;&gt;&amp;nbsp;by&lt;/span&gt;" style="edgeLabel;html=1;align=center;verticalAlign=middle;resizable=0;points=[];" parent="nf_Whg44I8AfjpseTQWu-476" connectable="0" vertex="1">
          <mxGeometry x="-0.1388" y="-1" relative="1" as="geometry">
            <mxPoint as="offset" />
          </mxGeometry>
        </mxCell>
        <mxCell id="nf_Whg44I8AfjpseTQWu-483" style="edgeStyle=none;curved=1;rounded=0;orthogonalLoop=1;jettySize=auto;html=1;strokeColor=#60E696;fontSize=12;fontColor=#095C86;startSize=8;endSize=8;fillColor=#F694C1;entryX=1;entryY=0.5;entryDx=0;entryDy=0;exitX=0;exitY=0.5;exitDx=0;exitDy=0;" parent="1" source="nf_Whg44I8AfjpseTQWu-527" target="nf_Whg44I8AfjpseTQWu-493" edge="1">
          <mxGeometry relative="1" as="geometry">
            <mxPoint x="136.029193662755" y="758.0063561139978" as="targetPoint" />
            <mxPoint x="66" y="577" as="sourcePoint" />
          </mxGeometry>
        </mxCell>
        <mxCell id="nf_Whg44I8AfjpseTQWu-484" value="related to" style="edgeLabel;html=1;align=center;verticalAlign=middle;resizable=0;points=[];fontSize=12;strokeColor=#AF45ED;fontColor=#095C86;fillColor=#F694C1;fontStyle=0" parent="nf_Whg44I8AfjpseTQWu-483" connectable="0" vertex="1">
          <mxGeometry x="-0.0883" y="-2" relative="1" as="geometry">
            <mxPoint x="-30" y="4" as="offset" />
          </mxGeometry>
        </mxCell>
        <mxCell id="nf_Whg44I8AfjpseTQWu-485" style="edgeStyle=none;curved=1;rounded=0;orthogonalLoop=1;jettySize=auto;html=1;entryX=1;entryY=0.5;entryDx=0;entryDy=0;strokeColor=#60E696;fontSize=12;fontColor=#095C86;startSize=8;endSize=8;fillColor=#F694C1;" parent="1" source="nf_Whg44I8AfjpseTQWu-493" target="nf_Whg44I8AfjpseTQWu-494" edge="1">
          <mxGeometry relative="1" as="geometry" />
        </mxCell>
        <mxCell id="nf_Whg44I8AfjpseTQWu-486" value="publication place" style="edgeLabel;html=1;align=center;verticalAlign=middle;resizable=0;points=[];fontSize=12;strokeColor=#AF45ED;fontColor=#095C86;fillColor=#F694C1;" parent="nf_Whg44I8AfjpseTQWu-485" connectable="0" vertex="1">
          <mxGeometry x="-0.1184" y="4" relative="1" as="geometry">
            <mxPoint as="offset" />
          </mxGeometry>
        </mxCell>
        <mxCell id="nf_Whg44I8AfjpseTQWu-487" style="edgeStyle=none;curved=1;rounded=0;orthogonalLoop=1;jettySize=auto;html=1;strokeColor=#60E696;fontSize=12;fontColor=#095C86;startSize=8;endSize=8;fillColor=#F694C1;" parent="1" source="nf_Whg44I8AfjpseTQWu-493" target="nf_Whg44I8AfjpseTQWu-495" edge="1">
          <mxGeometry relative="1" as="geometry" />
        </mxCell>
        <mxCell id="nf_Whg44I8AfjpseTQWu-488" value="is a" style="edgeLabel;html=1;align=center;verticalAlign=middle;resizable=0;points=[];fontSize=12;strokeColor=#AF45ED;fontColor=#095C86;fillColor=#F694C1;" parent="nf_Whg44I8AfjpseTQWu-487" connectable="0" vertex="1">
          <mxGeometry x="-0.1611" y="4" relative="1" as="geometry">
            <mxPoint as="offset" />
          </mxGeometry>
        </mxCell>
        <mxCell id="nf_Whg44I8AfjpseTQWu-489" style="edgeStyle=none;curved=1;rounded=0;orthogonalLoop=1;jettySize=auto;html=1;strokeColor=#60E696;fontSize=12;fontColor=#095C86;startSize=8;endSize=8;fillColor=#F694C1;entryX=1;entryY=0.5;entryDx=0;entryDy=0;" parent="1" source="nf_Whg44I8AfjpseTQWu-493" target="nf_Whg44I8AfjpseTQWu-496" edge="1">
          <mxGeometry relative="1" as="geometry">
            <mxPoint x="-489" y="598" as="targetPoint" />
          </mxGeometry>
        </mxCell>
        <mxCell id="nf_Whg44I8AfjpseTQWu-490" value="published in" style="edgeLabel;html=1;align=center;verticalAlign=middle;resizable=0;points=[];fontSize=12;strokeColor=#AF45ED;fontColor=#095C86;fillColor=#F694C1;" parent="nf_Whg44I8AfjpseTQWu-489" connectable="0" vertex="1">
          <mxGeometry x="-0.1587" y="2" relative="1" as="geometry">
            <mxPoint x="-8" y="-4" as="offset" />
          </mxGeometry>
        </mxCell>
        <mxCell id="nf_Whg44I8AfjpseTQWu-491" style="edgeStyle=none;curved=1;rounded=0;orthogonalLoop=1;jettySize=auto;html=1;strokeColor=#60E696;fontSize=12;fontColor=#095C86;startSize=8;endSize=8;fillColor=#F694C1;" parent="1" source="nf_Whg44I8AfjpseTQWu-493" target="nf_Whg44I8AfjpseTQWu-497" edge="1">
          <mxGeometry relative="1" as="geometry" />
        </mxCell>
        <mxCell id="nf_Whg44I8AfjpseTQWu-492" value="published by" style="edgeLabel;html=1;align=center;verticalAlign=middle;resizable=0;points=[];fontSize=12;strokeColor=#AF45ED;fontColor=#095C86;fillColor=#F694C1;" parent="nf_Whg44I8AfjpseTQWu-491" connectable="0" vertex="1">
          <mxGeometry x="-0.1195" y="3" relative="1" as="geometry">
            <mxPoint x="-4" y="-3" as="offset" />
          </mxGeometry>
        </mxCell>
        <mxCell id="nf_Whg44I8AfjpseTQWu-493" value="&lt;div&gt;&lt;span style=&quot;font-weight: normal;&quot;&gt;&lt;br&gt;&lt;/span&gt;&lt;/div&gt;&lt;span style=&quot;font-weight: normal;&quot;&gt;Giuoco dell&#39;Oca&lt;/span&gt;&lt;div&gt;&lt;span style=&quot;font-weight: normal;&quot;&gt;&lt;br&gt;&lt;/span&gt;&lt;/div&gt;" style="ellipse;whiteSpace=wrap;html=1;labelBackgroundColor=none;fillColor=#F694C1;strokeColor=#AF45ED;fontColor=#095C86;opacity=20;strokeWidth=1;fontStyle=3" parent="1" vertex="1">
          <mxGeometry x="-639" y="272" width="120" height="80" as="geometry" />
        </mxCell>
        <mxCell id="nf_Whg44I8AfjpseTQWu-494" value="Milano" style="ellipse;shape=doubleEllipse;whiteSpace=wrap;html=1;strokeColor=default;align=center;verticalAlign=middle;fontFamily=Helvetica;fontSize=12;fontColor=default;fillColor=default;" parent="1" vertex="1">
          <mxGeometry x="-904" y="153" width="100" height="60" as="geometry" />
        </mxCell>
        <mxCell id="nf_Whg44I8AfjpseTQWu-495" value="Board Game" style="ellipse;shape=doubleEllipse;whiteSpace=wrap;html=1;strokeColor=default;align=center;verticalAlign=middle;fontFamily=Helvetica;fontSize=12;fontColor=default;fillColor=default;" parent="1" vertex="1">
          <mxGeometry x="-813" y="80" width="100" height="60" as="geometry" />
        </mxCell>
        <mxCell id="nf_Whg44I8AfjpseTQWu-496" value="1925-1949" style="ellipse;shape=doubleEllipse;whiteSpace=wrap;html=1;strokeColor=default;align=center;verticalAlign=middle;fontFamily=Helvetica;fontSize=12;fontColor=default;fillColor=default;" parent="1" vertex="1">
          <mxGeometry x="-923" y="229" width="100" height="60" as="geometry" />
        </mxCell>
        <mxCell id="nf_Whg44I8AfjpseTQWu-497" value="Edizioni Marca Stella" style="ellipse;shape=doubleEllipse;whiteSpace=wrap;html=1;strokeColor=default;align=center;verticalAlign=middle;fontFamily=Helvetica;fontSize=12;fontColor=default;fillColor=default;" parent="1" vertex="1">
          <mxGeometry x="-932" y="296" width="100" height="60" as="geometry" />
        </mxCell>
        <mxCell id="nf_Whg44I8AfjpseTQWu-498" value="related to" style="edgeStyle=none;curved=1;rounded=0;orthogonalLoop=1;jettySize=auto;html=1;strokeColor=#60E696;fontSize=12;fontColor=#095C86;startSize=8;endSize=8;fillColor=#F694C1;entryX=0.5;entryY=0;entryDx=0;entryDy=0;exitX=1;exitY=1;exitDx=0;exitDy=0;" parent="1" source="nf_Whg44I8AfjpseTQWu-456" target="nf_Whg44I8AfjpseTQWu-528" edge="1">
          <mxGeometry relative="1" as="geometry">
            <mxPoint x="274" y="1079" as="sourcePoint" />
            <mxPoint x="373" y="1233" as="targetPoint" />
          </mxGeometry>
        </mxCell>
        <mxCell id="nf_Whg44I8AfjpseTQWu-500" value="Columbia Pictures" style="ellipse;shape=doubleEllipse;whiteSpace=wrap;html=1;strokeColor=default;align=center;verticalAlign=middle;fontFamily=Helvetica;fontSize=12;fontColor=default;fillColor=default;" parent="1" vertex="1">
          <mxGeometry x="-342" y="1037" width="100" height="60" as="geometry" />
        </mxCell>
        <mxCell id="nf_Whg44I8AfjpseTQWu-501" style="edgeStyle=none;curved=1;rounded=0;orthogonalLoop=1;jettySize=auto;html=1;exitX=0;exitY=0.5;exitDx=0;exitDy=0;strokeColor=#60E696;fontSize=12;fontColor=#095C86;startSize=8;endSize=8;fillColor=#F694C1;entryX=1;entryY=0.5;entryDx=0;entryDy=0;" parent="1" source="nf_Whg44I8AfjpseTQWu-468" target="nf_Whg44I8AfjpseTQWu-500" edge="1">
          <mxGeometry relative="1" as="geometry">
            <mxPoint x="-84" y="926" as="sourcePoint" />
            <mxPoint x="-521" y="780.72" as="targetPoint" />
          </mxGeometry>
        </mxCell>
        <mxCell id="nf_Whg44I8AfjpseTQWu-502" value="&lt;font color=&quot;#095c86&quot;&gt;&lt;span style=&quot;font-size: 12px;&quot;&gt;produced by&lt;/span&gt;&lt;/font&gt;" style="edgeLabel;html=1;align=center;verticalAlign=middle;resizable=0;points=[];" parent="nf_Whg44I8AfjpseTQWu-501" connectable="0" vertex="1">
          <mxGeometry x="-0.1388" y="-1" relative="1" as="geometry">
            <mxPoint x="-37" y="10" as="offset" />
          </mxGeometry>
        </mxCell>
        <mxCell id="nf_Whg44I8AfjpseTQWu-503" value="United States" style="ellipse;shape=doubleEllipse;whiteSpace=wrap;html=1;strokeColor=default;align=center;verticalAlign=middle;fontFamily=Helvetica;fontSize=12;fontColor=default;fillColor=default;" parent="1" vertex="1">
          <mxGeometry x="-319" y="956" width="100" height="60" as="geometry" />
        </mxCell>
        <mxCell id="nf_Whg44I8AfjpseTQWu-504" style="edgeStyle=none;curved=1;rounded=0;orthogonalLoop=1;jettySize=auto;html=1;exitX=0;exitY=0;exitDx=0;exitDy=0;strokeColor=#60E696;fontSize=12;fontColor=#095C86;startSize=8;endSize=8;fillColor=#F694C1;entryX=1;entryY=0.5;entryDx=0;entryDy=0;" parent="1" source="nf_Whg44I8AfjpseTQWu-468" target="nf_Whg44I8AfjpseTQWu-503" edge="1">
          <mxGeometry relative="1" as="geometry">
            <mxPoint x="-167.00000000000003" y="893" as="sourcePoint" />
            <mxPoint x="-604" y="747.72" as="targetPoint" />
          </mxGeometry>
        </mxCell>
        <mxCell id="nf_Whg44I8AfjpseTQWu-505" value="&lt;font color=&quot;#095c86&quot;&gt;&lt;span style=&quot;font-size: 12px;&quot;&gt;production place&lt;/span&gt;&lt;/font&gt;" style="edgeLabel;html=1;align=center;verticalAlign=middle;resizable=0;points=[];" parent="nf_Whg44I8AfjpseTQWu-504" connectable="0" vertex="1">
          <mxGeometry x="-0.1388" y="-1" relative="1" as="geometry">
            <mxPoint as="offset" />
          </mxGeometry>
        </mxCell>
        <mxCell id="nf_Whg44I8AfjpseTQWu-506" value="Film-Production Carl Dreyer" style="ellipse;shape=doubleEllipse;whiteSpace=wrap;html=1;strokeColor=default;align=center;verticalAlign=middle;fontFamily=Helvetica;fontSize=12;fontColor=default;fillColor=default;" parent="1" vertex="1">
          <mxGeometry x="1375" y="599" width="100" height="60" as="geometry" />
        </mxCell>
        <mxCell id="nf_Whg44I8AfjpseTQWu-507" style="edgeStyle=none;curved=1;rounded=0;orthogonalLoop=1;jettySize=auto;html=1;exitX=1;exitY=0.5;exitDx=0;exitDy=0;strokeColor=#60E696;fontSize=12;fontColor=#095C86;startSize=8;endSize=8;fillColor=#F694C1;entryX=0;entryY=0.5;entryDx=0;entryDy=0;" parent="1" source="nf_Whg44I8AfjpseTQWu-371" target="nf_Whg44I8AfjpseTQWu-506" edge="1">
          <mxGeometry relative="1" as="geometry">
            <mxPoint x="1651" y="669" as="sourcePoint" />
            <mxPoint x="1167" y="458.72" as="targetPoint" />
          </mxGeometry>
        </mxCell>
        <mxCell id="nf_Whg44I8AfjpseTQWu-508" value="&lt;font color=&quot;#095c86&quot;&gt;&lt;span style=&quot;font-size: 12px;&quot;&gt;produced by&lt;/span&gt;&lt;/font&gt;" style="edgeLabel;html=1;align=center;verticalAlign=middle;resizable=0;points=[];" parent="nf_Whg44I8AfjpseTQWu-507" connectable="0" vertex="1">
          <mxGeometry x="-0.1388" y="-1" relative="1" as="geometry">
            <mxPoint x="43" y="5" as="offset" />
          </mxGeometry>
        </mxCell>
        <mxCell id="nf_Whg44I8AfjpseTQWu-509" value="France, Germany" style="ellipse;shape=doubleEllipse;whiteSpace=wrap;html=1;strokeColor=default;align=center;verticalAlign=middle;fontFamily=Helvetica;fontSize=12;fontColor=default;fillColor=default;" parent="1" vertex="1">
          <mxGeometry x="1269" y="653" width="100" height="60" as="geometry" />
        </mxCell>
        <mxCell id="nf_Whg44I8AfjpseTQWu-510" style="edgeStyle=none;curved=1;rounded=0;orthogonalLoop=1;jettySize=auto;html=1;exitX=0.967;exitY=0.688;exitDx=0;exitDy=0;strokeColor=#60E696;fontSize=12;fontColor=#095C86;startSize=8;endSize=8;fillColor=#F694C1;entryX=0;entryY=0;entryDx=0;entryDy=0;exitPerimeter=0;" parent="1" source="nf_Whg44I8AfjpseTQWu-371" target="nf_Whg44I8AfjpseTQWu-509" edge="1">
          <mxGeometry relative="1" as="geometry">
            <mxPoint x="1662" y="782" as="sourcePoint" />
            <mxPoint x="1077" y="566.72" as="targetPoint" />
          </mxGeometry>
        </mxCell>
        <mxCell id="nf_Whg44I8AfjpseTQWu-511" value="&lt;font color=&quot;#095c86&quot;&gt;&lt;span style=&quot;font-size: 12px;&quot;&gt;production place&lt;/span&gt;&lt;/font&gt;" style="edgeLabel;html=1;align=center;verticalAlign=middle;resizable=0;points=[];" parent="nf_Whg44I8AfjpseTQWu-510" connectable="0" vertex="1">
          <mxGeometry x="-0.1388" y="-1" relative="1" as="geometry">
            <mxPoint as="offset" />
          </mxGeometry>
        </mxCell>
        <mxCell id="nf_Whg44I8AfjpseTQWu-512" value="" style="edgeStyle=none;curved=1;rounded=0;orthogonalLoop=1;jettySize=auto;html=1;strokeColor=#60E696;fontSize=12;fontColor=#095C86;startSize=8;endSize=8;fillColor=#F694C1;exitX=0.793;exitY=0.946;exitDx=0;exitDy=0;exitPerimeter=0;" parent="1" source="nf_Whg44I8AfjpseTQWu-408" target="nf_Whg44I8AfjpseTQWu-516" edge="1">
          <mxGeometry relative="1" as="geometry">
            <mxPoint x="1150" y="1345" as="sourcePoint" />
          </mxGeometry>
        </mxCell>
        <mxCell id="nf_Whg44I8AfjpseTQWu-513" value="published by" style="edgeLabel;html=1;align=center;verticalAlign=middle;resizable=0;points=[];fontSize=12;strokeColor=#AF45ED;fontColor=#095C86;fillColor=#F694C1;" parent="nf_Whg44I8AfjpseTQWu-512" connectable="0" vertex="1">
          <mxGeometry x="-0.0732" y="4" relative="1" as="geometry">
            <mxPoint as="offset" />
          </mxGeometry>
        </mxCell>
        <mxCell id="nf_Whg44I8AfjpseTQWu-514" style="edgeStyle=none;curved=1;rounded=0;orthogonalLoop=1;jettySize=auto;html=1;strokeColor=#60E696;fontSize=12;fontColor=#095C86;startSize=8;endSize=8;fillColor=#F694C1;exitX=0.634;exitY=0.962;exitDx=0;exitDy=0;exitPerimeter=0;" parent="1" source="nf_Whg44I8AfjpseTQWu-408" target="nf_Whg44I8AfjpseTQWu-517" edge="1">
          <mxGeometry relative="1" as="geometry">
            <mxPoint x="1129" y="1349" as="sourcePoint" />
          </mxGeometry>
        </mxCell>
        <mxCell id="nf_Whg44I8AfjpseTQWu-515" value="publication place" style="edgeLabel;html=1;align=center;verticalAlign=middle;resizable=0;points=[];fontSize=12;strokeColor=#AF45ED;fontColor=#095C86;fillColor=#F694C1;" parent="nf_Whg44I8AfjpseTQWu-514" connectable="0" vertex="1">
          <mxGeometry x="-0.1628" y="-3" relative="1" as="geometry">
            <mxPoint x="13" y="15" as="offset" />
          </mxGeometry>
        </mxCell>
        <mxCell id="nf_Whg44I8AfjpseTQWu-516" value="&lt;font&gt;Boringhieri&lt;br&gt;&lt;/font&gt;" style="ellipse;shape=doubleEllipse;whiteSpace=wrap;html=1;strokeColor=default;align=center;verticalAlign=middle;fontFamily=Helvetica;fontSize=12;fontColor=default;fillColor=default;" parent="1" vertex="1">
          <mxGeometry x="1009" y="1037" width="100" height="60" as="geometry" />
        </mxCell>
        <mxCell id="nf_Whg44I8AfjpseTQWu-517" value="Turin" style="ellipse;shape=doubleEllipse;whiteSpace=wrap;html=1;strokeColor=default;align=center;verticalAlign=middle;fontFamily=Helvetica;fontSize=12;fontColor=default;fillColor=default;" parent="1" vertex="1">
          <mxGeometry x="912" y="1062" width="100" height="60" as="geometry" />
        </mxCell>
        <mxCell id="nf_Whg44I8AfjpseTQWu-518" value="" style="edgeStyle=none;curved=1;rounded=0;orthogonalLoop=1;jettySize=auto;html=1;strokeColor=#60E696;fontSize=12;fontColor=#095C86;startSize=8;endSize=8;fillColor=#F694C1;exitX=1;exitY=1;exitDx=0;exitDy=0;" parent="1" source="nf_Whg44I8AfjpseTQWu-436" target="nf_Whg44I8AfjpseTQWu-520" edge="1">
          <mxGeometry relative="1" as="geometry">
            <mxPoint x="859" y="1195" as="sourcePoint" />
          </mxGeometry>
        </mxCell>
        <mxCell id="nf_Whg44I8AfjpseTQWu-519" value="published by" style="edgeLabel;html=1;align=center;verticalAlign=middle;resizable=0;points=[];fontSize=12;strokeColor=#AF45ED;fontColor=#095C86;fillColor=#F694C1;" parent="nf_Whg44I8AfjpseTQWu-518" connectable="0" vertex="1">
          <mxGeometry x="-0.0732" y="4" relative="1" as="geometry">
            <mxPoint as="offset" />
          </mxGeometry>
        </mxCell>
        <mxCell id="nf_Whg44I8AfjpseTQWu-520" value="&lt;font&gt;Capitol Records&lt;/font&gt;" style="ellipse;shape=doubleEllipse;whiteSpace=wrap;html=1;strokeColor=default;align=center;verticalAlign=middle;fontFamily=Helvetica;fontSize=12;fontColor=default;fillColor=default;" parent="1" vertex="1">
          <mxGeometry x="852" y="1283" width="100" height="60" as="geometry" />
        </mxCell>
        <mxCell id="nf_Whg44I8AfjpseTQWu-521" value="Hollywood, California" style="ellipse;shape=doubleEllipse;whiteSpace=wrap;html=1;strokeColor=default;align=center;verticalAlign=middle;fontFamily=Helvetica;fontSize=12;fontColor=default;fillColor=default;" parent="1" vertex="1">
          <mxGeometry x="952" y="1261" width="100" height="60" as="geometry" />
        </mxCell>
        <mxCell id="nf_Whg44I8AfjpseTQWu-522" style="edgeStyle=none;curved=1;rounded=0;orthogonalLoop=1;jettySize=auto;html=1;exitX=0.945;exitY=0.735;exitDx=0;exitDy=0;strokeColor=#60E696;fontSize=12;fontColor=#095C86;startSize=8;endSize=8;fillColor=#F694C1;entryX=0;entryY=0;entryDx=0;entryDy=0;exitPerimeter=0;" parent="1" source="nf_Whg44I8AfjpseTQWu-436" target="nf_Whg44I8AfjpseTQWu-521" edge="1">
          <mxGeometry relative="1" as="geometry">
            <mxPoint x="1002" y="1275" as="sourcePoint" />
            <mxPoint x="1041" y="1260.72" as="targetPoint" />
          </mxGeometry>
        </mxCell>
        <mxCell id="nf_Whg44I8AfjpseTQWu-523" value="&lt;font color=&quot;#095c86&quot;&gt;&lt;span style=&quot;font-size: 12px;&quot;&gt;production place&lt;/span&gt;&lt;/font&gt;" style="edgeLabel;html=1;align=center;verticalAlign=middle;resizable=0;points=[];" parent="nf_Whg44I8AfjpseTQWu-522" connectable="0" vertex="1">
          <mxGeometry x="-0.1388" y="-1" relative="1" as="geometry">
            <mxPoint x="35" y="35" as="offset" />
          </mxGeometry>
        </mxCell>
        <mxCell id="nf_Whg44I8AfjpseTQWu-524" value="United States" style="ellipse;shape=doubleEllipse;whiteSpace=wrap;html=1;strokeColor=default;align=center;verticalAlign=middle;fontFamily=Helvetica;fontSize=12;fontColor=default;fillColor=default;" parent="1" vertex="1">
          <mxGeometry x="454" y="1190" width="100" height="60" as="geometry" />
        </mxCell>
        <mxCell id="nf_Whg44I8AfjpseTQWu-525" style="edgeStyle=none;curved=1;rounded=0;orthogonalLoop=1;jettySize=auto;html=1;strokeColor=#60E696;fontSize=12;fontColor=#095C86;startSize=8;endSize=8;fillColor=#F694C1;entryX=0.5;entryY=0;entryDx=0;entryDy=0;exitX=0.366;exitY=0.998;exitDx=0;exitDy=0;exitPerimeter=0;" parent="1" source="nf_Whg44I8AfjpseTQWu-424" target="nf_Whg44I8AfjpseTQWu-524" edge="1">
          <mxGeometry relative="1" as="geometry">
            <mxPoint x="496" y="1095" as="sourcePoint" />
            <mxPoint x="564" y="1266.72" as="targetPoint" />
          </mxGeometry>
        </mxCell>
        <mxCell id="nf_Whg44I8AfjpseTQWu-526" value="&lt;font style=&quot;font-size: 12px;&quot; color=&quot;#095c86&quot;&gt;creation place&lt;br&gt;&lt;/font&gt;" style="edgeLabel;html=1;align=center;verticalAlign=middle;resizable=0;points=[];" parent="nf_Whg44I8AfjpseTQWu-525" connectable="0" vertex="1">
          <mxGeometry x="-0.1388" y="-1" relative="1" as="geometry">
            <mxPoint y="14" as="offset" />
          </mxGeometry>
        </mxCell>
        <mxCell id="nf_Whg44I8AfjpseTQWu-527" value="&lt;i&gt;&lt;b&gt;&lt;font style=&quot;font-size: 18px;&quot;&gt;Il Giuoco dell&#39;Oca&lt;/font&gt;&lt;/b&gt;&lt;/i&gt;" style="ellipse;whiteSpace=wrap;html=1;labelBackgroundColor=none;fillColor=#F694C1;strokeColor=#AF45ED;fontColor=#095C86;aspect=fixed;strokeWidth=5;" parent="1" vertex="1">
          <mxGeometry x="193" y="180.01" width="200" height="133.33" as="geometry" />
        </mxCell>
        <mxCell id="nf_Whg44I8AfjpseTQWu-528" value="&lt;i&gt;Marcatrè&lt;/i&gt;" style="ellipse;whiteSpace=wrap;html=1;labelBackgroundColor=none;fillColor=#F694C1;strokeColor=#AF45ED;fontColor=#095C86;opacity=20;" parent="1" vertex="1">
          <mxGeometry x="317" y="1217" width="100" height="60" as="geometry" />
        </mxCell>
        <mxCell id="nf_Whg44I8AfjpseTQWu-529" value="1963" style="ellipse;shape=doubleEllipse;whiteSpace=wrap;html=1;strokeColor=default;align=center;verticalAlign=middle;fontFamily=Helvetica;fontSize=12;fontColor=default;fillColor=default;" parent="1" vertex="1">
          <mxGeometry x="131" y="1370" width="100" height="60" as="geometry" />
        </mxCell>
        <mxCell id="nf_Whg44I8AfjpseTQWu-530" style="edgeStyle=none;curved=1;rounded=0;orthogonalLoop=1;jettySize=auto;html=1;exitX=0;exitY=0.5;exitDx=0;exitDy=0;strokeColor=#60E696;fontSize=12;fontColor=#095C86;startSize=8;endSize=8;fillColor=#F694C1;entryX=0.5;entryY=0;entryDx=0;entryDy=0;" parent="1" source="nf_Whg44I8AfjpseTQWu-528" target="nf_Whg44I8AfjpseTQWu-529" edge="1">
          <mxGeometry relative="1" as="geometry">
            <mxPoint x="393" y="1301.5" as="sourcePoint" />
            <mxPoint x="-11" y="1002.5" as="targetPoint" />
          </mxGeometry>
        </mxCell>
        <mxCell id="nf_Whg44I8AfjpseTQWu-531" value="&lt;font style=&quot;font-size: 12px;&quot; color=&quot;#095c86&quot;&gt;published from&lt;br&gt;&lt;/font&gt;" style="edgeLabel;html=1;align=center;verticalAlign=middle;resizable=0;points=[];" parent="nf_Whg44I8AfjpseTQWu-530" connectable="0" vertex="1">
          <mxGeometry x="-0.1388" y="-1" relative="1" as="geometry">
            <mxPoint x="-3" y="14" as="offset" />
          </mxGeometry>
        </mxCell>
        <mxCell id="nf_Whg44I8AfjpseTQWu-532" value="Eugenio Battisti" style="ellipse;shape=doubleEllipse;whiteSpace=wrap;html=1;strokeColor=default;align=center;verticalAlign=middle;fontFamily=Helvetica;fontSize=12;fontColor=default;fillColor=default;" parent="1" vertex="1">
          <mxGeometry x="247" y="1417" width="100" height="60" as="geometry" />
        </mxCell>
        <mxCell id="nf_Whg44I8AfjpseTQWu-533" style="edgeStyle=none;curved=1;rounded=0;orthogonalLoop=1;jettySize=auto;html=1;exitX=0;exitY=1;exitDx=0;exitDy=0;strokeColor=#60E696;fontSize=12;fontColor=#095C86;startSize=8;endSize=8;fillColor=#F694C1;entryX=0.5;entryY=0;entryDx=0;entryDy=0;" parent="1" source="nf_Whg44I8AfjpseTQWu-528" target="nf_Whg44I8AfjpseTQWu-532" edge="1">
          <mxGeometry relative="1" as="geometry">
            <mxPoint x="475" y="1291" as="sourcePoint" />
            <mxPoint x="50.5" y="1034.72" as="targetPoint" />
          </mxGeometry>
        </mxCell>
        <mxCell id="nf_Whg44I8AfjpseTQWu-534" value="&lt;font color=&quot;#095c86&quot;&gt;&lt;span style=&quot;font-size: 12px;&quot;&gt;edited by&lt;/span&gt;&lt;/font&gt;" style="edgeLabel;html=1;align=center;verticalAlign=middle;resizable=0;points=[];" parent="nf_Whg44I8AfjpseTQWu-533" connectable="0" vertex="1">
          <mxGeometry x="-0.1388" y="-1" relative="1" as="geometry">
            <mxPoint as="offset" />
          </mxGeometry>
        </mxCell>
        <mxCell id="nf_Whg44I8AfjpseTQWu-535" value="Genova" style="ellipse;shape=doubleEllipse;whiteSpace=wrap;html=1;strokeColor=default;align=center;verticalAlign=middle;fontFamily=Helvetica;fontSize=12;fontColor=default;fillColor=default;" parent="1" vertex="1">
          <mxGeometry x="382" y="1419" width="100" height="60" as="geometry" />
        </mxCell>
        <mxCell id="nf_Whg44I8AfjpseTQWu-536" style="edgeStyle=none;curved=1;rounded=0;orthogonalLoop=1;jettySize=auto;html=1;exitX=0.5;exitY=1;exitDx=0;exitDy=0;strokeColor=#60E696;fontSize=12;fontColor=#095C86;startSize=8;endSize=8;fillColor=#F694C1;entryX=0.5;entryY=0;entryDx=0;entryDy=0;" parent="1" source="nf_Whg44I8AfjpseTQWu-528" target="nf_Whg44I8AfjpseTQWu-535" edge="1">
          <mxGeometry relative="1" as="geometry">
            <mxPoint x="481.5" y="1368" as="sourcePoint" />
            <mxPoint x="161" y="1184.72" as="targetPoint" />
          </mxGeometry>
        </mxCell>
        <mxCell id="nf_Whg44I8AfjpseTQWu-537" value="&lt;font color=&quot;#095c86&quot;&gt;&lt;span style=&quot;font-size: 12px;&quot;&gt;publication place&lt;/span&gt;&lt;/font&gt;" style="edgeLabel;html=1;align=center;verticalAlign=middle;resizable=0;points=[];" parent="nf_Whg44I8AfjpseTQWu-536" connectable="0" vertex="1">
          <mxGeometry x="-0.1388" y="-1" relative="1" as="geometry">
            <mxPoint x="3" y="7" as="offset" />
          </mxGeometry>
        </mxCell>
        <mxCell id="nf_Whg44I8AfjpseTQWu-538" value="Periodical" style="ellipse;shape=doubleEllipse;whiteSpace=wrap;html=1;strokeColor=default;align=center;verticalAlign=middle;fontFamily=Helvetica;fontSize=12;fontColor=default;fillColor=default;" parent="1" vertex="1">
          <mxGeometry x="478" y="1352" width="100" height="60" as="geometry" />
        </mxCell>
        <mxCell id="nf_Whg44I8AfjpseTQWu-539" style="edgeStyle=none;curved=1;rounded=0;orthogonalLoop=1;jettySize=auto;html=1;strokeColor=#60E696;fontSize=12;fontColor=#095C86;startSize=8;endSize=8;fillColor=#F694C1;entryX=0.5;entryY=0;entryDx=0;entryDy=0;exitX=1;exitY=1;exitDx=0;exitDy=0;" parent="1" source="nf_Whg44I8AfjpseTQWu-528" target="nf_Whg44I8AfjpseTQWu-538" edge="1">
          <mxGeometry relative="1" as="geometry">
            <mxPoint x="423.5" y="1252" as="sourcePoint" />
            <mxPoint x="170.5" y="1154.72" as="targetPoint" />
          </mxGeometry>
        </mxCell>
        <mxCell id="nf_Whg44I8AfjpseTQWu-540" value="&lt;font color=&quot;#095c86&quot;&gt;&lt;span style=&quot;font-size: 12px;&quot;&gt;is a&lt;/span&gt;&lt;/font&gt;" style="edgeLabel;html=1;align=center;verticalAlign=middle;resizable=0;points=[];" parent="nf_Whg44I8AfjpseTQWu-539" connectable="0" vertex="1">
          <mxGeometry x="-0.1388" y="-1" relative="1" as="geometry">
            <mxPoint as="offset" />
          </mxGeometry>
        </mxCell>
        <mxCell id="nf_Whg44I8AfjpseTQWu-541" value="Feature Publications" style="ellipse;shape=doubleEllipse;whiteSpace=wrap;html=1;strokeColor=default;align=center;verticalAlign=middle;fontFamily=Helvetica;fontSize=12;fontColor=default;fillColor=default;" parent="1" vertex="1">
          <mxGeometry x="1375" y="-78" width="100" height="60" as="geometry" />
        </mxCell>
        <mxCell id="nf_Whg44I8AfjpseTQWu-542" style="edgeStyle=none;curved=1;rounded=0;orthogonalLoop=1;jettySize=auto;html=1;exitX=1;exitY=1;exitDx=0;exitDy=0;entryX=0;entryY=0.5;entryDx=0;entryDy=0;strokeColor=#60E696;fontSize=12;fontColor=#095C86;startSize=8;endSize=8;fillColor=#F694C1;" parent="1" source="nf_Whg44I8AfjpseTQWu-340" target="nf_Whg44I8AfjpseTQWu-541" edge="1">
          <mxGeometry relative="1" as="geometry">
            <mxPoint x="1245" y="-45" as="sourcePoint" />
          </mxGeometry>
        </mxCell>
        <mxCell id="nf_Whg44I8AfjpseTQWu-543" value="published by" style="edgeLabel;html=1;align=center;verticalAlign=middle;resizable=0;points=[];fontSize=12;strokeColor=#AF45ED;fontColor=#095C86;fillColor=#F694C1;" parent="nf_Whg44I8AfjpseTQWu-542" connectable="0" vertex="1">
          <mxGeometry x="-0.0436" y="-2" relative="1" as="geometry">
            <mxPoint as="offset" />
          </mxGeometry>
        </mxCell>
        <mxCell id="nf_Whg44I8AfjpseTQWu-544" style="edgeStyle=none;curved=1;rounded=0;orthogonalLoop=1;jettySize=auto;html=1;strokeColor=#60E696;fontSize=12;fontColor=#095C86;startSize=8;endSize=8;fillColor=#F694C1;exitX=0.5;exitY=1;exitDx=0;exitDy=0;" parent="1" source="nf_Whg44I8AfjpseTQWu-392" target="nf_Whg44I8AfjpseTQWu-546" edge="1">
          <mxGeometry relative="1" as="geometry">
            <mxPoint x="1220" y="780" as="sourcePoint" />
          </mxGeometry>
        </mxCell>
        <mxCell id="nf_Whg44I8AfjpseTQWu-545" value="publication place" style="edgeLabel;html=1;align=center;verticalAlign=middle;resizable=0;points=[];fontSize=12;strokeColor=#AF45ED;fontColor=#095C86;fillColor=#F694C1;" parent="nf_Whg44I8AfjpseTQWu-544" connectable="0" vertex="1">
          <mxGeometry x="-0.1628" y="-3" relative="1" as="geometry">
            <mxPoint x="13" y="15" as="offset" />
          </mxGeometry>
        </mxCell>
        <mxCell id="nf_Whg44I8AfjpseTQWu-546" value="Costantinople" style="ellipse;shape=doubleEllipse;whiteSpace=wrap;html=1;strokeColor=default;align=center;verticalAlign=middle;fontFamily=Helvetica;fontSize=12;fontColor=default;fillColor=default;" parent="1" vertex="1">
          <mxGeometry x="958" y="854" width="100" height="60" as="geometry" />
        </mxCell>
        <mxCell id="B3_4Dxg9Ekl4PY9z5d4t-4" value="Erminio Risso" style="rounded=0;whiteSpace=wrap;html=1;rotation=-60;" parent="1" vertex="1">
          <mxGeometry x="-20" y="775" width="114" height="35" as="geometry" />
        </mxCell>
        <mxCell id="6xXh7GVxiviQ_V9eXPDS-1" value="Chiara Portesine" style="rounded=0;whiteSpace=wrap;html=1;rotation=85;" parent="1" vertex="1">
          <mxGeometry x="236" y="812" width="114" height="35" as="geometry" />
        </mxCell>
      </root>
    </mxGraphModel>
  </diagram>
</mxfile>
